<?xml version="1.0" encoding="UTF-8" standalone="no"?>
<svg
   xmlns:dc="http://purl.org/dc/elements/1.1/"
   xmlns:cc="http://creativecommons.org/ns#"
   xmlns:rdf="http://www.w3.org/1999/02/22-rdf-syntax-ns#"
   xmlns:svg="http://www.w3.org/2000/svg"
   xmlns="http://www.w3.org/2000/svg"
   viewBox="0 0 580.19165 585.685"
   height="585.685"
   width="580.19165"
   xml:space="preserve"
   id="svg2"
   version="1.1"><metadata
     id="metadata8"><rdf:RDF><cc:Work
         rdf:about=""><dc:format>image/svg+xml</dc:format><dc:type
           rdf:resource="http://purl.org/dc/dcmitype/StillImage" /></cc:Work></rdf:RDF></metadata><defs
     id="defs6"><clipPath
       id="clipPath22"
       clipPathUnits="userSpaceOnUse"><path
         id="path20"
         d="m 55.325,37.54375 h 305.84125 v 311.46 H 55.325 Z" /></clipPath><clipPath
       id="clipPath32"
       clipPathUnits="userSpaceOnUse"><path
         id="path30"
         d="m -3.5,-3.5 h 7 v 7 h -7 z" /></clipPath><clipPath
       id="clipPath44"
       clipPathUnits="userSpaceOnUse"><path
         id="path42"
         d="m -3.5,-3.5 h 7 v 7 h -7 z" /></clipPath><clipPath
       id="clipPath56"
       clipPathUnits="userSpaceOnUse"><path
         id="path54"
         d="m -3.5,-3.5 h 7 v 7 h -7 z" /></clipPath><clipPath
       id="clipPath68"
       clipPathUnits="userSpaceOnUse"><path
         id="path66"
         d="m -3.5,-3.5 h 7 v 7 h -7 z" /></clipPath><clipPath
       id="clipPath80"
       clipPathUnits="userSpaceOnUse"><path
         id="path78"
         d="m -3.5,-3.5 h 7 v 7 h -7 z" /></clipPath><clipPath
       id="clipPath92"
       clipPathUnits="userSpaceOnUse"><path
         id="path90"
         d="m -3.5,-3.5 h 7 v 7 h -7 z" /></clipPath><clipPath
       id="clipPath104"
       clipPathUnits="userSpaceOnUse"><path
         id="path102"
         d="m -3.5,-3.5 h 7 v 7 h -7 z" /></clipPath><clipPath
       id="clipPath116"
       clipPathUnits="userSpaceOnUse"><path
         id="path114"
         d="m -3.5,-3.5 h 7 v 7 h -7 z" /></clipPath><clipPath
       id="clipPath128"
       clipPathUnits="userSpaceOnUse"><path
         id="path126"
         d="m -3.5,-3.5 h 7 v 7 h -7 z" /></clipPath><clipPath
       id="clipPath140"
       clipPathUnits="userSpaceOnUse"><path
         id="path138"
         d="m -3.5,-3.5 h 7 v 7 h -7 z" /></clipPath><clipPath
       id="clipPath152"
       clipPathUnits="userSpaceOnUse"><path
         id="path150"
         d="m -3.5,-3.5 h 7 v 7 h -7 z" /></clipPath><clipPath
       id="clipPath164"
       clipPathUnits="userSpaceOnUse"><path
         id="path162"
         d="m -3.5,-3.5 h 7 v 7 h -7 z" /></clipPath><clipPath
       id="clipPath174"
       clipPathUnits="userSpaceOnUse"><path
         id="path172"
         d="m 55.325,37.54375 h 305.84125 v 311.46 H 55.325 Z" /></clipPath><clipPath
       id="clipPath242"
       clipPathUnits="userSpaceOnUse"><path
         id="path240"
         d="M -1021,-463 H 1794 V 1233 H -1021 Z" /></clipPath><clipPath
       id="clipPath262"
       clipPathUnits="userSpaceOnUse"><path
         id="path260"
         d="M -1021,-463 H 1794 V 1233 H -1021 Z" /></clipPath><clipPath
       id="clipPath312"
       clipPathUnits="userSpaceOnUse"><path
         id="path310"
         d="m 55.325,37.54375 h 305.84125 v 311.46 H 55.325 Z" /></clipPath><clipPath
       id="clipPath330"
       clipPathUnits="userSpaceOnUse"><path
         id="path328"
         d="m 55.325,359.74375 h 305.84125 v 53.7 H 55.325 Z" /></clipPath><clipPath
       id="clipPath340"
       clipPathUnits="userSpaceOnUse"><path
         id="path338"
         d="m 55.325,359.74375 h 305.84125 v 53.7 H 55.325 Z" /></clipPath><clipPath
       id="clipPath350"
       clipPathUnits="userSpaceOnUse"><path
         id="path348"
         d="m 55.325,359.74375 h 305.84125 v 53.7 H 55.325 Z" /></clipPath><clipPath
       id="clipPath360"
       clipPathUnits="userSpaceOnUse"><path
         id="path358"
         d="m 55.325,359.74375 h 305.84125 v 53.7 H 55.325 Z" /></clipPath><clipPath
       id="clipPath370"
       clipPathUnits="userSpaceOnUse"><path
         id="path368"
         d="m 55.325,359.74375 h 305.84125 v 53.7 H 55.325 Z" /></clipPath><clipPath
       id="clipPath380"
       clipPathUnits="userSpaceOnUse"><path
         id="path378"
         d="m 55.325,359.74375 h 305.84125 v 53.7 H 55.325 Z" /></clipPath><clipPath
       id="clipPath408"
       clipPathUnits="userSpaceOnUse"><path
         id="path406"
         d="m 55.325,359.74375 h 305.84125 v 53.7 H 55.325 Z" /></clipPath><clipPath
       id="clipPath424"
       clipPathUnits="userSpaceOnUse"><path
         id="path422"
         d="m 371.7125,37.54375 h 52.73125 v 311.46 H 371.7125 Z" /></clipPath><clipPath
       id="clipPath434"
       clipPathUnits="userSpaceOnUse"><path
         id="path432"
         d="m 371.7125,37.54375 h 52.73125 v 311.46 H 371.7125 Z" /></clipPath><clipPath
       id="clipPath444"
       clipPathUnits="userSpaceOnUse"><path
         id="path442"
         d="m 371.7125,37.54375 h 52.73125 v 311.46 H 371.7125 Z" /></clipPath><clipPath
       id="clipPath454"
       clipPathUnits="userSpaceOnUse"><path
         id="path452"
         d="m 371.7125,37.54375 h 52.73125 v 311.46 H 371.7125 Z" /></clipPath><clipPath
       id="clipPath480"
       clipPathUnits="userSpaceOnUse"><path
         id="path478"
         d="m 371.7125,37.54375 h 52.73125 v 311.46 H 371.7125 Z" /></clipPath></defs><g
     transform="matrix(1.3333333,0,0,-1.3333333,0,585.685)"
     id="g10"><path
       id="path12"
       style="fill:#ffffff;fill-opacity:1;fill-rule:nonzero;stroke:none"
       d="M 0,0 H 435.14375 V 439.26375 H 0 Z" /><path
       id="path14"
       style="fill:#ffffff;fill-opacity:1;fill-rule:nonzero;stroke:none"
       d="m 55.325,37.54375 h 305.84125 v 311.46 H 55.325 Z" /><g
       id="g16"><g
         clip-path="url(#clipPath22)"
         id="g18"><g
           transform="translate(296.70902,245.85233)"
           id="g24"><g
             id="g26"><g
               clip-path="url(#clipPath32)"
               id="g28"><path
                 id="path34"
                 style="fill:#0000ff;fill-opacity:0.8;fill-rule:nonzero;stroke:#0000ff;stroke-width:1;stroke-linecap:butt;stroke-linejoin:round;stroke-miterlimit:10;stroke-dasharray:none;stroke-opacity:0.8"
                 d="m 0,-3 c 0.795609,0 1.55874,0.316099 2.12132,0.87868 C 2.683901,-1.55874 3,-0.795609 3,0 3,0.795609 2.683901,1.55874 2.12132,2.12132 1.55874,2.683901 0.795609,3 0,3 -0.795609,3 -1.55874,2.683901 -2.12132,2.12132 -2.683901,1.55874 -3,0.795609 -3,0 -3,-0.795609 -2.683901,-1.55874 -2.12132,-2.12132 -1.55874,-2.683901 -0.795609,-3 0,-3 Z" /></g></g><g
             transform="translate(-104.77992,-33.319822)"
             id="g36"><g
               id="g38"><g
                 clip-path="url(#clipPath44)"
                 id="g40"><path
                   id="path46"
                   style="fill:#0000ff;fill-opacity:0.8;fill-rule:nonzero;stroke:#0000ff;stroke-width:1;stroke-linecap:butt;stroke-linejoin:round;stroke-miterlimit:10;stroke-dasharray:none;stroke-opacity:0.8"
                   d="m 0,-3 c 0.795609,0 1.55874,0.316099 2.12132,0.87868 C 2.683901,-1.55874 3,-0.795609 3,0 3,0.795609 2.683901,1.55874 2.12132,2.12132 1.55874,2.683901 0.795609,3 0,3 -0.795609,3 -1.55874,2.683901 -2.12132,2.12132 -2.683901,1.55874 -3,0.795609 -3,0 -3,-0.795609 -2.683901,-1.55874 -2.12132,-2.12132 -1.55874,-2.683901 -0.795609,-3 0,-3 Z" /></g></g><g
               transform="translate(13.725396,-8.4706869)"
               id="g48"><g
                 id="g50"><g
                   clip-path="url(#clipPath56)"
                   id="g52"><path
                     id="path58"
                     style="fill:#0000ff;fill-opacity:0.8;fill-rule:nonzero;stroke:#0000ff;stroke-width:1;stroke-linecap:butt;stroke-linejoin:round;stroke-miterlimit:10;stroke-dasharray:none;stroke-opacity:0.8"
                     d="m 0,-3 c 0.795609,0 1.55874,0.316099 2.12132,0.87868 C 2.683901,-1.55874 3,-0.795609 3,0 3,0.795609 2.683901,1.55874 2.12132,2.12132 1.55874,2.683901 0.795609,3 0,3 -0.795609,3 -1.55874,2.683901 -2.12132,2.12132 -2.683901,1.55874 -3,0.795609 -3,0 -3,-0.795609 -2.683901,-1.55874 -2.12132,-2.12132 -1.55874,-2.683901 -0.795609,-3 0,-3 Z" /></g></g><g
                 transform="translate(-29.353552,26.548634)"
                 id="g60"><g
                   id="g62"><g
                     clip-path="url(#clipPath68)"
                     id="g64"><path
                       id="path70"
                       style="fill:#0000ff;fill-opacity:0.8;fill-rule:nonzero;stroke:#0000ff;stroke-width:1;stroke-linecap:butt;stroke-linejoin:round;stroke-miterlimit:10;stroke-dasharray:none;stroke-opacity:0.8"
                       d="m 0,-3 c 0.795609,0 1.55874,0.316099 2.12132,0.87868 C 2.683901,-1.55874 3,-0.795609 3,0 3,0.795609 2.683901,1.55874 2.12132,2.12132 1.55874,2.683901 0.795609,3 0,3 -0.795609,3 -1.55874,2.683901 -2.12132,2.12132 -2.683901,1.55874 -3,0.795609 -3,0 -3,-0.795609 -2.683901,-1.55874 -2.12132,-2.12132 -1.55874,-2.683901 -0.795609,-3 0,-3 Z" /></g></g><g
                   transform="translate(-16.321876,-6.7551047)"
                   id="g72"><g
                     id="g74"><g
                       clip-path="url(#clipPath80)"
                       id="g76"><path
                         id="path82"
                         style="fill:#0000ff;fill-opacity:0.8;fill-rule:nonzero;stroke:#0000ff;stroke-width:1;stroke-linecap:butt;stroke-linejoin:round;stroke-miterlimit:10;stroke-dasharray:none;stroke-opacity:0.8"
                         d="m 0,-3 c 0.795609,0 1.55874,0.316099 2.12132,0.87868 C 2.683901,-1.55874 3,-0.795609 3,0 3,0.795609 2.683901,1.55874 2.12132,2.12132 1.55874,2.683901 0.795609,3 0,3 -0.795609,3 -1.55874,2.683901 -2.12132,2.12132 -2.683901,1.55874 -3,0.795609 -3,0 -3,-0.795609 -2.683901,-1.55874 -2.12132,-2.12132 -1.55874,-2.683901 -0.795609,-3 0,-3 Z" /></g></g><g
                     transform="translate(12.066639,-9.3392003)"
                     id="g84"><g
                       id="g86"><g
                         clip-path="url(#clipPath92)"
                         id="g88"><path
                           id="path94"
                           style="fill:#0000ff;fill-opacity:0.8;fill-rule:nonzero;stroke:#0000ff;stroke-width:1;stroke-linecap:butt;stroke-linejoin:round;stroke-miterlimit:10;stroke-dasharray:none;stroke-opacity:0.8"
                           d="m 0,-3 c 0.795609,0 1.55874,0.316099 2.12132,0.87868 C 2.683901,-1.55874 3,-0.795609 3,0 3,0.795609 2.683901,1.55874 2.12132,2.12132 1.55874,2.683901 0.795609,3 0,3 -0.795609,3 -1.55874,2.683901 -2.12132,2.12132 -2.683901,1.55874 -3,0.795609 -3,0 -3,-0.795609 -2.683901,-1.55874 -2.12132,-2.12132 -1.55874,-2.683901 -0.795609,-3 0,-3 Z" /></g></g><g
                       transform="translate(3.5635687,-1.3402986)"
                       id="g96"><g
                         id="g98"><g
                           clip-path="url(#clipPath104)"
                           id="g100"><path
                             id="path106"
                             style="fill:#0000ff;fill-opacity:0.8;fill-rule:nonzero;stroke:#0000ff;stroke-width:1;stroke-linecap:butt;stroke-linejoin:round;stroke-miterlimit:10;stroke-dasharray:none;stroke-opacity:0.8"
                             d="m 0,-3 c 0.795609,0 1.55874,0.316099 2.12132,0.87868 C 2.683901,-1.55874 3,-0.795609 3,0 3,0.795609 2.683901,1.55874 2.12132,2.12132 1.55874,2.683901 0.795609,3 0,3 -0.795609,3 -1.55874,2.683901 -2.12132,2.12132 -2.683901,1.55874 -3,0.795609 -3,0 -3,-0.795609 -2.683901,-1.55874 -2.12132,-2.12132 -1.55874,-2.683901 -0.795609,-3 0,-3 Z" /></g></g><g
                         transform="translate(23.251186,26.870305)"
                         id="g108"><g
                           id="g110"><g
                             clip-path="url(#clipPath116)"
                             id="g112"><path
                               id="path118"
                               style="fill:#0000ff;fill-opacity:0.8;fill-rule:nonzero;stroke:#0000ff;stroke-width:1;stroke-linecap:butt;stroke-linejoin:round;stroke-miterlimit:10;stroke-dasharray:none;stroke-opacity:0.8"
                               d="m 0,-3 c 0.795609,0 1.55874,0.316099 2.12132,0.87868 C 2.683901,-1.55874 3,-0.795609 3,0 3,0.795609 2.683901,1.55874 2.12132,2.12132 1.55874,2.683901 0.795609,3 0,3 -0.795609,3 -1.55874,2.683901 -2.12132,2.12132 -2.683901,1.55874 -3,0.795609 -3,0 -3,-0.795609 -2.683901,-1.55874 -2.12132,-2.12132 -1.55874,-2.683901 -0.795609,-3 0,-3 Z" /></g></g><g
                           transform="translate(-45.292518,8.8352481)"
                           id="g120"><g
                             id="g122"><g
                               clip-path="url(#clipPath128)"
                               id="g124"><path
                                 id="path130"
                                 style="fill:#0000ff;fill-opacity:0.8;fill-rule:nonzero;stroke:#0000ff;stroke-width:1;stroke-linecap:butt;stroke-linejoin:round;stroke-miterlimit:10;stroke-dasharray:none;stroke-opacity:0.8"
                                 d="m 0,-3 c 0.795609,0 1.55874,0.316099 2.12132,0.87868 C 2.683901,-1.55874 3,-0.795609 3,0 3,0.795609 2.683901,1.55874 2.12132,2.12132 1.55874,2.683901 0.795609,3 0,3 -0.795609,3 -1.55874,2.683901 -2.12132,2.12132 -2.683901,1.55874 -3,0.795609 -3,0 -3,-0.795609 -2.683901,-1.55874 -2.12132,-2.12132 -1.55874,-2.683901 -0.795609,-3 0,-3 Z" /></g></g><g
                             transform="translate(-13.26357,-9.4893138)"
                             id="g132"><g
                               id="g134"><g
                                 clip-path="url(#clipPath140)"
                                 id="g136"><path
                                   id="path142"
                                   style="fill:#0000ff;fill-opacity:0.8;fill-rule:nonzero;stroke:#0000ff;stroke-width:1;stroke-linecap:butt;stroke-linejoin:round;stroke-miterlimit:10;stroke-dasharray:none;stroke-opacity:0.8"
                                   d="m 0,-3 c 0.795609,0 1.55874,0.316099 2.12132,0.87868 C 2.683901,-1.55874 3,-0.795609 3,0 3,0.795609 2.683901,1.55874 2.12132,2.12132 1.55874,2.683901 0.795609,3 0,3 -0.795609,3 -1.55874,2.683901 -2.12132,2.12132 -2.683901,1.55874 -3,0.795609 -3,0 -3,-0.795609 -2.683901,-1.55874 -2.12132,-2.12132 -1.55874,-2.683901 -0.795609,-3 0,-3 Z" /></g></g><g
                               transform="translate(34.332462,-10.481135)"
                               id="g144"><g
                                 id="g146"><g
                                   clip-path="url(#clipPath152)"
                                   id="g148"><path
                                   id="path154"
                                   style="fill:#0000ff;fill-opacity:0.8;fill-rule:nonzero;stroke:#0000ff;stroke-width:1;stroke-linecap:butt;stroke-linejoin:round;stroke-miterlimit:10;stroke-dasharray:none;stroke-opacity:0.8"
                                   d="m 0,-3 c 0.795609,0 1.55874,0.316099 2.12132,0.87868 C 2.683901,-1.55874 3,-0.795609 3,0 3,0.795609 2.683901,1.55874 2.12132,2.12132 1.55874,2.683901 0.795609,3 0,3 -0.795609,3 -1.55874,2.683901 -2.12132,2.12132 -2.683901,1.55874 -3,0.795609 -3,0 -3,-0.795609 -2.683901,-1.55874 -2.12132,-2.12132 -1.55874,-2.683901 -0.795609,-3 0,-3 Z" /></g></g><g
                                 transform="translate(-54.854603,53.392133)"
                                 id="g156"><g
                                   id="g158"><g
                                   clip-path="url(#clipPath164)"
                                   id="g160"><path
                                   id="path166"
                                   style="fill:#0000ff;fill-opacity:0.8;fill-rule:nonzero;stroke:#0000ff;stroke-width:1;stroke-linecap:butt;stroke-linejoin:round;stroke-miterlimit:10;stroke-dasharray:none;stroke-opacity:0.8"
                                   d="m 0,-3 c 0.795609,0 1.55874,0.316099 2.12132,0.87868 C 2.683901,-1.55874 3,-0.795609 3,0 3,0.795609 2.683901,1.55874 2.12132,2.12132 1.55874,2.683901 0.795609,3 0,3 -0.795609,3 -1.55874,2.683901 -2.12132,2.12132 -2.683901,1.55874 -3,0.795609 -3,0 -3,-0.795609 -2.683901,-1.55874 -2.12132,-2.12132 -1.55874,-2.683901 -0.795609,-3 0,-3 Z" /></g></g></g></g></g></g></g></g></g></g></g></g></g></g></g></g><g
       id="g168"><g
         clip-path="url(#clipPath174)"
         id="g170"><path
           id="path176"
           style="fill:#0000ff;fill-opacity:0.15;fill-rule:nonzero;stroke:none"
           d="M 55.325,334.84648 V 202.5744 l 3.089306,0.48434 3.089305,0.44018 3.089306,0.34382 3.089305,0.48403 3.089306,0.58254 3.089305,0.57112 3.089306,0.48433 3.089305,0.48555 3.089306,0.48619 3.089306,0.54281 3.089305,0.56911 3.089306,0.56911 3.089305,0.55503 3.089306,0.43721 3.089302,0.41922 3.08931,0.41921 3.0893,0.41921 3.08931,0.48439 3.08931,0.56247 3.0893,0.42228 3.08931,0.50287 3.0893,0.45297 3.08931,0.51869 3.0893,0.51868 3.08931,0.41662 3.0893,0.498 3.08931,0.50995 3.08931,0.51778 3.0893,0.4816 3.08931,0.48066 3.0893,0.59108 3.08931,0.51778 3.0893,0.4515 3.08931,0.51541 3.0893,0.56324 3.08931,0.3423 3.08931,0.21549 3.0893,-0.58481 3.08931,-1.06868 3.0893,-1.77352 3.08931,-1.92795 3.0893,-2.5921 3.08931,-2.77235 3.0893,-2.82919 3.08931,-2.5648 3.08931,-2.51407 3.0893,-2.62028 3.08931,-2.89785 3.0893,-2.777 3.08931,-2.50445 3.0893,-2.86621 3.08931,-2.89009 3.0893,-2.75222 3.08931,-2.97206 3.08931,-2.87433 3.0893,-2.81032 3.08931,-2.72136 3.0893,-2.72137 3.08931,-2.72136 3.0893,-2.89305 3.08931,-2.95793 3.0893,-2.95792 3.08931,-2.95792 3.08931,-2.95793 3.0893,-2.95792 3.08931,-2.94999 3.0893,-2.87572 3.08931,-2.87573 3.0893,-2.87573 3.08931,-2.87572 3.0893,-2.87573 3.08931,-2.87573 3.08931,-2.87572 3.0893,-2.87573 3.08931,-2.87573 3.0893,-2.87396 3.08931,-2.8702 3.0893,-2.87019 3.08931,-2.8702 3.0893,-2.8702 3.08931,-2.8702 3.08931,-2.865766 3.0893,-2.742323 3.08931,-2.742323 3.0893,-2.742324 3.08931,-2.742323 3.0893,-2.742323 3.08931,-2.742323 3.0893,-2.742323 3.08931,-2.742323 3.08931,-2.742323 3.0893,-2.742323 3.08931,-2.742323 3.0893,-2.742323 3.08931,-2.877335 3.0893,-2.895912 3.08931,-2.895912 3.0893,-2.895913 3.08931,-2.895912 v 201.559937 0 l -3.08931,-0.50358 -3.0893,-0.51611 -3.08931,-0.48857 -3.0893,-0.3867 -3.08931,-0.44481 -3.0893,-0.56388 -3.08931,-0.5649 -3.0893,-0.39436 -3.08931,-0.38753 -3.08931,-0.42863 -3.0893,-0.46994 -3.08931,-0.32276 -3.0893,-0.32276 -3.08931,-0.38066 -3.0893,-0.38641 -3.08931,-0.43983 -3.0893,-0.36178 -3.08931,-0.36178 -3.08931,-0.37614 -3.0893,-0.40406 -3.08931,-0.57124 -3.0893,-0.46984 -3.08931,-0.25439 -3.0893,-0.352 -3.08931,-0.50101 -3.0893,-0.42422 -3.08931,-0.48656 -3.08931,-0.38038 -3.0893,-0.39018 -3.08931,-0.33968 -3.0893,-0.30985 -3.08931,-0.32184 -3.0893,-0.32513 -3.08931,-0.22919 -3.0893,-0.25715 -3.08931,-0.17033 -3.08931,-0.1825 -3.0893,-0.11824 -3.08931,-0.14228 -3.0893,0.0618 -3.08931,-0.0554 -3.0893,0.0644 -3.08931,-0.0274 -3.0893,0.20422 -3.08931,0.20099 -3.08931,0.19292 -3.0893,0.0553 -3.08931,0.0665 -3.0893,0.36417 -3.08931,0.14627 -3.0893,0.0574 -3.08931,0.24122 -3.0893,0.40192 -3.08931,0.16658 -3.08931,0.16326 -3.0893,0.19161 -3.08931,0.61302 -3.0893,0.50084 -3.08931,0.51786 -3.0893,0.94966 -3.08931,0.29739 -3.0893,0.33937 -3.08931,0.3272 -3.08931,0.21872 -3.0893,0.87835 -3.08931,0.78535 -3.0893,1.84674 -3.08931,1.80049 -3.0893,2.00685 -3.08931,2.45126 -3.0893,2.56441 -3.08931,2.48473 -3.08931,2.55239 -3.0893,2.78406 -3.08931,2.42417 -3.0893,2.67442 -3.08931,2.81461 -3.0893,2.5541 -3.08931,2.9249 -3.0893,2.63706 -3.08931,2.79865 -3.08931,2.78247 -3.0893,2.86127 -3.08931,2.83761 -3.089302,2.71514 -3.089306,2.90739 -3.089305,2.76659 -3.089306,3.04776 -3.089305,2.83751 -3.089306,2.74195 -3.089306,2.78757 -3.089305,2.76456 -3.089306,2.76455 -3.089305,2.76456 -3.089306,2.87312 -3.089305,2.87441 -3.089306,2.87441 -3.089305,2.89811 -3.089306,2.97534 z" /></g></g><g
       id="g178"><path
         id="path180"
         style="fill:#000000;fill-opacity:1;fill-rule:nonzero;stroke:#000000;stroke-width:0.80000001;stroke-linecap:butt;stroke-linejoin:round;stroke-miterlimit:10;stroke-dasharray:none;stroke-opacity:1"
         d="m 63.142388,37.54375 v -3.5" /><text
         id="text184"
         style="font-variant:normal;font-weight:normal;font-size:10px;font-family:'DejaVu Sans';-inkscape-font-specification:DejaVuSans;writing-mode:lr-tb;fill:#000000;fill-opacity:1;fill-rule:nonzero;stroke:none"
         transform="matrix(1,0,0,-1,47.243951,22.95)"><tspan
           id="tspan182"
           y="0"
           x="0 6.3600001 12.72 19.08 25.440001">17000</tspan></text>
<path
         id="path186"
         style="fill:#000000;fill-opacity:1;fill-rule:nonzero;stroke:#000000;stroke-width:0.80000001;stroke-linecap:butt;stroke-linejoin:round;stroke-miterlimit:10;stroke-dasharray:none;stroke-opacity:1"
         d="m 101.0878,37.54375 v -3.5" /><text
         id="text190"
         style="font-variant:normal;font-weight:normal;font-size:10px;font-family:'DejaVu Sans';-inkscape-font-specification:DejaVuSans;writing-mode:lr-tb;fill:#000000;fill-opacity:1;fill-rule:nonzero;stroke:none"
         transform="matrix(1,0,0,-1,85.189358,22.95)"><tspan
           id="tspan188"
           y="0"
           x="0 6.3600001 12.72 19.08 25.440001">18000</tspan></text>
<path
         id="path192"
         style="fill:#000000;fill-opacity:1;fill-rule:nonzero;stroke:#000000;stroke-width:0.80000001;stroke-linecap:butt;stroke-linejoin:round;stroke-miterlimit:10;stroke-dasharray:none;stroke-opacity:1"
         d="m 139.0332,37.54375 v -3.5" /><text
         id="text196"
         style="font-variant:normal;font-weight:normal;font-size:10px;font-family:'DejaVu Sans';-inkscape-font-specification:DejaVuSans;writing-mode:lr-tb;fill:#000000;fill-opacity:1;fill-rule:nonzero;stroke:none"
         transform="matrix(1,0,0,-1,123.13477,22.95)"><tspan
           id="tspan194"
           y="0"
           x="0 6.3600001 12.72 19.08 25.440001">19000</tspan></text>
<path
         id="path198"
         style="fill:#000000;fill-opacity:1;fill-rule:nonzero;stroke:#000000;stroke-width:0.80000001;stroke-linecap:butt;stroke-linejoin:round;stroke-miterlimit:10;stroke-dasharray:none;stroke-opacity:1"
         d="m 176.97861,37.54375 v -3.5" /><text
         id="text202"
         style="font-variant:normal;font-weight:normal;font-size:10px;font-family:'DejaVu Sans';-inkscape-font-specification:DejaVuSans;writing-mode:lr-tb;fill:#000000;fill-opacity:1;fill-rule:nonzero;stroke:none"
         transform="matrix(1,0,0,-1,161.08017,22.95)"><tspan
           id="tspan200"
           y="0"
           x="0 6.3600001 12.72 19.08 25.440001">20000</tspan></text>
<path
         id="path204"
         style="fill:#000000;fill-opacity:1;fill-rule:nonzero;stroke:#000000;stroke-width:0.80000001;stroke-linecap:butt;stroke-linejoin:round;stroke-miterlimit:10;stroke-dasharray:none;stroke-opacity:1"
         d="m 214.92402,37.54375 v -3.5" /><text
         id="text208"
         style="font-variant:normal;font-weight:normal;font-size:10px;font-family:'DejaVu Sans';-inkscape-font-specification:DejaVuSans;writing-mode:lr-tb;fill:#000000;fill-opacity:1;fill-rule:nonzero;stroke:none"
         transform="matrix(1,0,0,-1,199.02558,22.95)"><tspan
           id="tspan206"
           y="0"
           x="0 6.3600001 12.72 19.08 25.440001">21000</tspan></text>
<path
         id="path210"
         style="fill:#000000;fill-opacity:1;fill-rule:nonzero;stroke:#000000;stroke-width:0.80000001;stroke-linecap:butt;stroke-linejoin:round;stroke-miterlimit:10;stroke-dasharray:none;stroke-opacity:1"
         d="m 252.86942,37.54375 v -3.5" /><text
         id="text214"
         style="font-variant:normal;font-weight:normal;font-size:10px;font-family:'DejaVu Sans';-inkscape-font-specification:DejaVuSans;writing-mode:lr-tb;fill:#000000;fill-opacity:1;fill-rule:nonzero;stroke:none"
         transform="matrix(1,0,0,-1,236.97099,22.95)"><tspan
           id="tspan212"
           y="0"
           x="0 6.3600001 12.72 19.08 25.440001">22000</tspan></text>
<path
         id="path216"
         style="fill:#000000;fill-opacity:1;fill-rule:nonzero;stroke:#000000;stroke-width:0.80000001;stroke-linecap:butt;stroke-linejoin:round;stroke-miterlimit:10;stroke-dasharray:none;stroke-opacity:1"
         d="m 290.81483,37.54375 v -3.5" /><text
         id="text220"
         style="font-variant:normal;font-weight:normal;font-size:10px;font-family:'DejaVu Sans';-inkscape-font-specification:DejaVuSans;writing-mode:lr-tb;fill:#000000;fill-opacity:1;fill-rule:nonzero;stroke:none"
         transform="matrix(1,0,0,-1,274.91639,22.95)"><tspan
           id="tspan218"
           y="0"
           x="0 6.3600001 12.72 19.08 25.440001">23000</tspan></text>
<path
         id="path222"
         style="fill:#000000;fill-opacity:1;fill-rule:nonzero;stroke:#000000;stroke-width:0.80000001;stroke-linecap:butt;stroke-linejoin:round;stroke-miterlimit:10;stroke-dasharray:none;stroke-opacity:1"
         d="m 328.76024,37.54375 v -3.5" /><text
         id="text226"
         style="font-variant:normal;font-weight:normal;font-size:10px;font-family:'DejaVu Sans';-inkscape-font-specification:DejaVuSans;writing-mode:lr-tb;fill:#000000;fill-opacity:1;fill-rule:nonzero;stroke:none"
         transform="matrix(1,0,0,-1,312.8618,22.95)"><tspan
           id="tspan224"
           y="0"
           x="0 6.3600001 12.72 19.08 25.440001">24000</tspan></text>
<g
         transform="translate(159.19094,9.278125)"
         id="g228"><text
           id="text232"
           style="font-variant:normal;font-weight:normal;font-size:10px;font-family:'DejaVu Sans';-inkscape-font-specification:DejaVuSans;writing-mode:lr-tb;fill:#000000;fill-opacity:1;fill-rule:nonzero;stroke:none"
           transform="scale(1,-1)"><tspan
             id="tspan230"
             y="0"
             x="0 8.6300001 14.78 21.129999 23.91 30.040001 36.380001 39.560001 43.669998 49.82 55.740002 61.889999 68.230003 74.57 80.720001 83.900002 94.155273">Median revenue ()</tspan></text>
<g
           transform="matrix(0.01,0,0,0.01,87.792969,0)"
           id="g234"><g
             id="g236"><g
               clip-path="url(#clipPath242)"
               id="g238"><path
                 id="path244"
                 style="fill:#000000;fill-opacity:1;fill-rule:nonzero;stroke:none"
                 d="M 570,673 V 569 c -30,34 -59,58 -86,73 -28,14 -58,22 -91,22 -52,0 -94,-17 -126,-49 -33,-33 -55,-80 -65,-140 H 484 L 457,415 H 194 c -1,-8 -1,-16 -1,-23 0,-8 0,-17 0,-28 0,-11 0,-20 0,-27 0,-8 0,-15 1,-23 H 412 L 385,254 H 202 c 10,-61 32,-108 65,-141 32,-33 74,-49 126,-49 33,0 63,7 91,22 27,14 56,39 86,73 V 56 C 540,32 511,15 481,4 451,-7 420,-13 389,-13 311,-13 248,10 198,57 148,103 116,169 103,254 H 0 l 27,60 h 68 c 0,7 -1,14 -1,22 0,8 0,17 0,28 0,11 0,20 0,28 0,8 1,15 1,23 H 0 l 27,60 h 76 c 13,84 45,149 95,196 50,47 114,71 191,71 32,0 63,-6 93,-17 30,-12 59,-29 88,-52" /></g></g></g></g><path
         id="path246"
         style="fill:#000000;fill-opacity:1;fill-rule:nonzero;stroke:#000000;stroke-width:0.80000001;stroke-linecap:butt;stroke-linejoin:round;stroke-miterlimit:10;stroke-dasharray:none;stroke-opacity:1"
         d="m 55.325,62.526292 h -3.5" /><g
         transform="translate(20.871875,58.729417)"
         id="g248"><text
           id="text252"
           style="font-variant:normal;font-weight:normal;font-size:10px;font-family:'DejaVu Sans';-inkscape-font-specification:DejaVuSans;writing-mode:lr-tb;fill:#000000;fill-opacity:1;fill-rule:nonzero;stroke:none"
           transform="matrix(1,0,0,-1,8.3789063,0)"><tspan
             id="tspan250"
             y="0"
             x="0 6.3600001 12.72">200</tspan></text>
<g
           transform="scale(0.01)"
           id="g254"><g
             id="g256"><g
               clip-path="url(#clipPath262)"
               id="g258"><path
                 id="path264"
                 style="fill:#000000;fill-opacity:1;fill-rule:nonzero;stroke:none"
                 d="M 106,355 H 732 V 272 H 106 v 83" /></g></g></g></g><path
         id="path266"
         style="fill:#000000;fill-opacity:1;fill-rule:nonzero;stroke:#000000;stroke-width:0.80000001;stroke-linecap:butt;stroke-linejoin:round;stroke-miterlimit:10;stroke-dasharray:none;stroke-opacity:1"
         d="m 55.325,105.41585 h -3.5" /><text
         id="text270"
         style="font-variant:normal;font-weight:normal;font-size:10px;font-family:'DejaVu Sans';-inkscape-font-specification:DejaVuSans;writing-mode:lr-tb;fill:#000000;fill-opacity:1;fill-rule:nonzero;stroke:none"
         transform="matrix(1,0,0,-1,41.965625,101.61897)"><tspan
           id="tspan268"
           y="0"
           x="0">0</tspan></text>
<path
         id="path272"
         style="fill:#000000;fill-opacity:1;fill-rule:nonzero;stroke:#000000;stroke-width:0.80000001;stroke-linecap:butt;stroke-linejoin:round;stroke-miterlimit:10;stroke-dasharray:none;stroke-opacity:1"
         d="m 55.325,148.3054 h -3.5" /><text
         id="text276"
         style="font-variant:normal;font-weight:normal;font-size:10px;font-family:'DejaVu Sans';-inkscape-font-specification:DejaVuSans;writing-mode:lr-tb;fill:#000000;fill-opacity:1;fill-rule:nonzero;stroke:none"
         transform="matrix(1,0,0,-1,29.246875,144.50852)"><tspan
           id="tspan274"
           y="0"
           x="0 6.3600001 12.72">200</tspan></text>
<path
         id="path278"
         style="fill:#000000;fill-opacity:1;fill-rule:nonzero;stroke:#000000;stroke-width:0.80000001;stroke-linecap:butt;stroke-linejoin:round;stroke-miterlimit:10;stroke-dasharray:none;stroke-opacity:1"
         d="m 55.325,191.19495 h -3.5" /><text
         id="text282"
         style="font-variant:normal;font-weight:normal;font-size:10px;font-family:'DejaVu Sans';-inkscape-font-specification:DejaVuSans;writing-mode:lr-tb;fill:#000000;fill-opacity:1;fill-rule:nonzero;stroke:none"
         transform="matrix(1,0,0,-1,29.246875,187.39808)"><tspan
           id="tspan280"
           y="0"
           x="0 6.3600001 12.72">400</tspan></text>
<path
         id="path284"
         style="fill:#000000;fill-opacity:1;fill-rule:nonzero;stroke:#000000;stroke-width:0.80000001;stroke-linecap:butt;stroke-linejoin:round;stroke-miterlimit:10;stroke-dasharray:none;stroke-opacity:1"
         d="m 55.325,234.08451 h -3.5" /><text
         id="text288"
         style="font-variant:normal;font-weight:normal;font-size:10px;font-family:'DejaVu Sans';-inkscape-font-specification:DejaVuSans;writing-mode:lr-tb;fill:#000000;fill-opacity:1;fill-rule:nonzero;stroke:none"
         transform="matrix(1,0,0,-1,29.246875,230.28763)"><tspan
           id="tspan286"
           y="0"
           x="0 6.3600001 12.72">600</tspan></text>
<path
         id="path290"
         style="fill:#000000;fill-opacity:1;fill-rule:nonzero;stroke:#000000;stroke-width:0.80000001;stroke-linecap:butt;stroke-linejoin:round;stroke-miterlimit:10;stroke-dasharray:none;stroke-opacity:1"
         d="m 55.325,276.97406 h -3.5" /><text
         id="text294"
         style="font-variant:normal;font-weight:normal;font-size:10px;font-family:'DejaVu Sans';-inkscape-font-specification:DejaVuSans;writing-mode:lr-tb;fill:#000000;fill-opacity:1;fill-rule:nonzero;stroke:none"
         transform="matrix(1,0,0,-1,29.246875,273.17719)"><tspan
           id="tspan292"
           y="0"
           x="0 6.3600001 12.72">800</tspan></text>
<path
         id="path296"
         style="fill:#000000;fill-opacity:1;fill-rule:nonzero;stroke:#000000;stroke-width:0.80000001;stroke-linecap:butt;stroke-linejoin:round;stroke-miterlimit:10;stroke-dasharray:none;stroke-opacity:1"
         d="m 55.325,319.86361 h -3.5" /><text
         id="text300"
         style="font-variant:normal;font-weight:normal;font-size:10px;font-family:'DejaVu Sans';-inkscape-font-specification:DejaVuSans;writing-mode:lr-tb;fill:#000000;fill-opacity:1;fill-rule:nonzero;stroke:none"
         transform="matrix(1,0,0,-1,22.8875,316.06674)"><tspan
           id="tspan298"
           y="0"
           x="0 6.3600001 12.72 19.08">1000</tspan></text>
<text
         id="text304"
         style="font-variant:normal;font-weight:normal;font-size:10px;font-family:'DejaVu Sans';-inkscape-font-specification:DejaVuSans;writing-mode:lr-tb;fill:#000000;fill-opacity:1;fill-rule:nonzero;stroke:none"
         transform="matrix(0,1,1,0,14.79375,101.03156)"><tspan
           id="tspan302"
           y="0"
           x="0 6.98 13.11 15.89 22.01 26.120001 28.9 35.049999 38.23 44.580002 50.73 57.07 62.279999 65.059998 68.980003 74.900002 78.080002 81.980003 87.769997 93.269997 99.400002 102.18 105.36 111.71 117.86 121.97 125.15 130.36 136.50999 142.42999 145.21001 151.55 157.89999 161.08 166.28999 169.07001 174.32001 180.47">Calorie density (kcal per seving size)</tspan></text>
</g><g
       id="g306"><g
         clip-path="url(#clipPath312)"
         id="g308"><path
           id="path314"
           style="fill:none;stroke:#0000ff;stroke-width:2.25;stroke-linecap:square;stroke-linejoin:round;stroke-miterlimit:10;stroke-dasharray:none;stroke-opacity:1"
           d="m 55.325,247.01884 3.089306,-0.37053 3.089305,-0.37053 3.089306,-0.37053 3.089305,-0.37054 3.089306,-0.37053 3.089305,-0.37053 3.089306,-0.37053 3.089305,-0.37054 3.089306,-0.37053 3.089306,-0.37053 3.089305,-0.37053 3.089306,-0.37054 3.089305,-0.37053 3.089306,-0.37053 3.089302,-0.37053 3.08931,-0.37054 3.0893,-0.37053 3.08931,-0.37053 3.08931,-0.37053 3.0893,-0.37054 3.08931,-0.37053 3.0893,-0.37053 3.08931,-0.37053 3.0893,-0.37053 3.08931,-0.37054 3.0893,-0.37053 3.08931,-0.37053 3.08931,-0.37053 3.0893,-0.37054 3.08931,-0.37053 3.0893,-0.37053 3.08931,-0.37053 3.0893,-0.37054 3.08931,-0.37053 3.0893,-0.37053 3.08931,-0.37053 3.08931,-0.37054 3.0893,-0.37053 3.08931,-0.37053 3.0893,-0.37053 3.08931,-0.37053 3.0893,-0.37054 3.08931,-0.37053 3.0893,-0.37053 3.08931,-0.37054 3.08931,-0.37053 3.0893,-0.37053 3.08931,-0.37053 3.0893,-0.37053 3.08931,-0.37054 3.0893,-0.37053 3.08931,-0.37053 3.0893,-0.37053 3.08931,-0.37054 3.08931,-0.37053 3.0893,-0.37053 3.08931,-0.37053 3.0893,-0.37054 3.08931,-0.37053 3.0893,-0.37053 3.08931,-0.37053 3.0893,-0.37054 3.08931,-0.37053 3.08931,-0.37053 3.0893,-0.37053 3.08931,-0.37054 3.0893,-0.37053 3.08931,-0.37053 3.0893,-0.37053 3.08931,-0.37053 3.0893,-0.37054 3.08931,-0.37053 3.08931,-0.37053 3.0893,-0.37053 3.08931,-0.37054 3.0893,-0.37053 3.08931,-0.37053 3.0893,-0.37053 3.08931,-0.37054 3.0893,-0.37053 3.08931,-0.37053 3.08931,-0.37053 3.0893,-0.37054 3.08931,-0.37053 3.0893,-0.37053 3.08931,-0.37053 3.0893,-0.37054 3.08931,-0.37053 3.0893,-0.37053 3.08931,-0.37053 3.08931,-0.37053 3.0893,-0.37054 3.08931,-0.37053 3.0893,-0.37053 3.08931,-0.37053 3.0893,-0.37054 3.08931,-0.37053 3.0893,-0.37053 3.08931,-0.37053" /></g></g><g
       id="g316"><path
         id="path318"
         style="fill:none;stroke:#000000;stroke-width:0.80000001;stroke-linecap:square;stroke-linejoin:miter;stroke-miterlimit:10;stroke-dasharray:none;stroke-opacity:1"
         d="m 55.325,37.54375 v 311.46" /><path
         id="path320"
         style="fill:none;stroke:#000000;stroke-width:0.80000001;stroke-linecap:square;stroke-linejoin:miter;stroke-miterlimit:10;stroke-dasharray:none;stroke-opacity:1"
         d="M 55.325,37.54375 H 361.16625" /><path
         id="path322"
         style="fill:#ffffff;fill-opacity:1;fill-rule:nonzero;stroke:none"
         d="m 55.325,359.74375 h 305.84125 v 53.7 H 55.325 Z" /></g><g
       id="g324"><g
         clip-path="url(#clipPath330)"
         id="g326"><path
           id="path332"
           style="fill:#0000ff;fill-opacity:0.4;fill-rule:nonzero;stroke:none"
           d="m 119.78223,359.74375 h 29.4878 v 17.04762 h -29.4878 z" /></g></g><g
       id="g334"><g
         clip-path="url(#clipPath340)"
         id="g336"><path
           id="path342"
           style="fill:#0000ff;fill-opacity:0.4;fill-rule:nonzero;stroke:none"
           d="m 149.27003,359.74375 h 29.4878 v 51.14286 h -29.4878 z" /></g></g><g
       id="g344"><g
         clip-path="url(#clipPath350)"
         id="g346"><path
           id="path352"
           style="fill:#0000ff;fill-opacity:0.4;fill-rule:nonzero;stroke:none"
           d="m 178.75783,359.74375 h 29.48779 v 25.57143 h -29.48779 z" /></g></g><g
       id="g354"><g
         clip-path="url(#clipPath360)"
         id="g356"><path
           id="path362"
           style="fill:#0000ff;fill-opacity:0.4;fill-rule:nonzero;stroke:none"
           d="m 208.24562,359.74375 h 29.4878 v 0 z" /></g></g><g
       id="g364"><g
         clip-path="url(#clipPath370)"
         id="g366"><path
           id="path372"
           style="fill:#0000ff;fill-opacity:0.4;fill-rule:nonzero;stroke:none"
           d="m 237.73342,359.74375 h 29.4878 v 0 z" /></g></g><g
       id="g374"><g
         clip-path="url(#clipPath380)"
         id="g376"><path
           id="path382"
           style="fill:#0000ff;fill-opacity:0.4;fill-rule:nonzero;stroke:none"
           d="m 267.22122,359.74375 h 29.4878 v 8.52381 h -29.4878 z" /></g></g><g
       id="g384"><path
         id="path386"
         style="fill:#000000;fill-opacity:1;fill-rule:nonzero;stroke:#000000;stroke-width:0.80000001;stroke-linecap:butt;stroke-linejoin:round;stroke-miterlimit:10;stroke-dasharray:none;stroke-opacity:1"
         d="m 63.142388,359.74375 v -3.5" /><path
         id="path388"
         style="fill:#000000;fill-opacity:1;fill-rule:nonzero;stroke:#000000;stroke-width:0.80000001;stroke-linecap:butt;stroke-linejoin:round;stroke-miterlimit:10;stroke-dasharray:none;stroke-opacity:1"
         d="m 101.0878,359.74375 v -3.5" /><path
         id="path390"
         style="fill:#000000;fill-opacity:1;fill-rule:nonzero;stroke:#000000;stroke-width:0.80000001;stroke-linecap:butt;stroke-linejoin:round;stroke-miterlimit:10;stroke-dasharray:none;stroke-opacity:1"
         d="m 139.0332,359.74375 v -3.5" /><path
         id="path392"
         style="fill:#000000;fill-opacity:1;fill-rule:nonzero;stroke:#000000;stroke-width:0.80000001;stroke-linecap:butt;stroke-linejoin:round;stroke-miterlimit:10;stroke-dasharray:none;stroke-opacity:1"
         d="m 176.97861,359.74375 v -3.5" /><path
         id="path394"
         style="fill:#000000;fill-opacity:1;fill-rule:nonzero;stroke:#000000;stroke-width:0.80000001;stroke-linecap:butt;stroke-linejoin:round;stroke-miterlimit:10;stroke-dasharray:none;stroke-opacity:1"
         d="m 214.92402,359.74375 v -3.5" /><path
         id="path396"
         style="fill:#000000;fill-opacity:1;fill-rule:nonzero;stroke:#000000;stroke-width:0.80000001;stroke-linecap:butt;stroke-linejoin:round;stroke-miterlimit:10;stroke-dasharray:none;stroke-opacity:1"
         d="m 252.86942,359.74375 v -3.5" /><path
         id="path398"
         style="fill:#000000;fill-opacity:1;fill-rule:nonzero;stroke:#000000;stroke-width:0.80000001;stroke-linecap:butt;stroke-linejoin:round;stroke-miterlimit:10;stroke-dasharray:none;stroke-opacity:1"
         d="m 290.81483,359.74375 v -3.5" /><path
         id="path400"
         style="fill:#000000;fill-opacity:1;fill-rule:nonzero;stroke:#000000;stroke-width:0.80000001;stroke-linecap:butt;stroke-linejoin:round;stroke-miterlimit:10;stroke-dasharray:none;stroke-opacity:1"
         d="m 328.76024,359.74375 v -3.5" /></g><g
       id="g402"><g
         clip-path="url(#clipPath408)"
         id="g404"><path
           id="path410"
           style="fill:none;stroke:#0000ff;stroke-width:1.5;stroke-linecap:square;stroke-linejoin:round;stroke-miterlimit:10;stroke-dasharray:none;stroke-opacity:1"
           d="m 69.226875,359.86189 6.567815,0.10512 6.567815,0.31854 4.378543,0.39178 4.378544,0.58463 4.378543,0.80957 4.378543,1.04401 4.378542,1.25813 6.56782,2.1817 8.75708,3.17904 6.56782,2.52244 4.37854,1.82924 4.37854,2.039 4.37855,2.32007 4.37854,2.63522 4.37854,2.92387 10.94636,7.70489 4.37855,2.64128 2.18927,1.08998 2.18927,0.89437 2.18927,0.67339 2.18927,0.43373 2.18927,0.18304 2.18928,-0.0706 2.18927,-0.31958 2.18927,-0.55693 2.18927,-0.77729 2.18927,-0.97693 2.18927,-1.15392 2.18928,-1.30788 4.37854,-2.99065 4.37854,-3.36221 6.56782,-5.445 6.56781,-5.51258 4.37855,-3.45114 4.37854,-3.08876 4.37854,-2.607 2.18927,-1.1017 2.18928,-0.96437 2.18927,-0.83002 2.18927,-0.70208 4.37854,-1.05832 4.37855,-0.67332 4.37854,-0.37924 4.37854,-0.15778 4.37855,0.02 4.37854,0.18343 4.37854,0.35332 4.37854,0.53479 4.37855,0.71323 6.56781,1.3135 6.56782,1.32304 4.37854,0.67143 4.37854,0.36097 4.37855,-0.0179 4.37854,-0.39333 4.37855,-0.69458 8.75708,-1.79155 6.56782,-1.2195 4.37854,-0.61778 4.37854,-0.4458 6.56782,-0.39401 6.56781,-0.15955 2.18927,-0.0158 v 0" /></g></g><g
       id="g412"><path
         id="path414"
         style="fill:none;stroke:#000000;stroke-width:0.80000001;stroke-linecap:square;stroke-linejoin:miter;stroke-miterlimit:10;stroke-dasharray:none;stroke-opacity:1"
         d="M 55.325,359.74375 H 361.16625" /><path
         id="path416"
         style="fill:#ffffff;fill-opacity:1;fill-rule:nonzero;stroke:none"
         d="m 371.7125,37.54375 h 52.73125 v 311.46 H 371.7125 Z" /></g><g
       id="g418"><g
         clip-path="url(#clipPath424)"
         id="g420"><path
           id="path426"
           style="fill:#0000ff;fill-opacity:0.4;fill-rule:nonzero;stroke:none"
           d="m 371.7125,204.06182 h 40.17619 v 19.56032 H 371.7125 Z" /></g></g><g
       id="g428"><g
         clip-path="url(#clipPath434)"
         id="g430"><path
           id="path436"
           style="fill:#0000ff;fill-opacity:0.4;fill-rule:nonzero;stroke:none"
           d="m 371.7125,223.62214 h 50.22024 v 19.56031 H 371.7125 Z" /></g></g><g
       id="g438"><g
         clip-path="url(#clipPath444)"
         id="g440"><path
           id="path446"
           style="fill:#0000ff;fill-opacity:0.4;fill-rule:nonzero;stroke:none"
           d="m 371.7125,243.18245 h 20.08809 v 19.56032 H 371.7125 Z" /></g></g><g
       id="g448"><g
         clip-path="url(#clipPath454)"
         id="g450"><path
           id="path456"
           style="fill:#0000ff;fill-opacity:0.4;fill-rule:nonzero;stroke:none"
           d="m 371.7125,262.74277 h 10.04405 v 19.56032 H 371.7125 Z" /></g></g><g
       id="g458"><path
         id="path460"
         style="fill:#000000;fill-opacity:1;fill-rule:nonzero;stroke:#000000;stroke-width:0.80000001;stroke-linecap:butt;stroke-linejoin:round;stroke-miterlimit:10;stroke-dasharray:none;stroke-opacity:1"
         d="m 371.7125,62.526292 h -3.5" /><path
         id="path462"
         style="fill:#000000;fill-opacity:1;fill-rule:nonzero;stroke:#000000;stroke-width:0.80000001;stroke-linecap:butt;stroke-linejoin:round;stroke-miterlimit:10;stroke-dasharray:none;stroke-opacity:1"
         d="m 371.7125,105.41585 h -3.5" /><path
         id="path464"
         style="fill:#000000;fill-opacity:1;fill-rule:nonzero;stroke:#000000;stroke-width:0.80000001;stroke-linecap:butt;stroke-linejoin:round;stroke-miterlimit:10;stroke-dasharray:none;stroke-opacity:1"
         d="m 371.7125,148.3054 h -3.5" /><path
         id="path466"
         style="fill:#000000;fill-opacity:1;fill-rule:nonzero;stroke:#000000;stroke-width:0.80000001;stroke-linecap:butt;stroke-linejoin:round;stroke-miterlimit:10;stroke-dasharray:none;stroke-opacity:1"
         d="m 371.7125,191.19495 h -3.5" /><path
         id="path468"
         style="fill:#000000;fill-opacity:1;fill-rule:nonzero;stroke:#000000;stroke-width:0.80000001;stroke-linecap:butt;stroke-linejoin:round;stroke-miterlimit:10;stroke-dasharray:none;stroke-opacity:1"
         d="m 371.7125,234.08451 h -3.5" /><path
         id="path470"
         style="fill:#000000;fill-opacity:1;fill-rule:nonzero;stroke:#000000;stroke-width:0.80000001;stroke-linecap:butt;stroke-linejoin:round;stroke-miterlimit:10;stroke-dasharray:none;stroke-opacity:1"
         d="m 371.7125,276.97406 h -3.5" /><path
         id="path472"
         style="fill:#000000;fill-opacity:1;fill-rule:nonzero;stroke:#000000;stroke-width:0.80000001;stroke-linecap:butt;stroke-linejoin:round;stroke-miterlimit:10;stroke-dasharray:none;stroke-opacity:1"
         d="m 371.7125,319.86361 h -3.5" /></g><g
       id="g474"><g
         clip-path="url(#clipPath480)"
         id="g476"><path
           id="path482"
           style="fill:none;stroke:#0000ff;stroke-width:1.5;stroke-linecap:square;stroke-linejoin:round;stroke-miterlimit:10;stroke-dasharray:none;stroke-opacity:1"
           d="m 371.85791,164.92405 0.14985,4.92966 0.30345,3.69725 0.57706,3.69725 0.60694,2.46483 0.84271,2.46483 1.12954,2.46483 1.46196,2.46484 1.82693,2.46483 2.20349,2.46483 2.56396,2.46483 2.87667,2.46483 4.7206,3.69725 7.99735,6.16208 2.89311,2.46483 2.57114,2.46483 2.19145,2.46483 1.78783,2.46483 1.38941,2.46484 1.01529,2.46483 0.67181,2.46483 0.35274,2.46483 0.0425,2.46483 -0.27842,2.46483 -0.62723,2.46483 -1.01308,2.46484 -1.43297,2.46483 -1.87028,2.46483 -2.29631,2.46483 -2.67441,2.46483 -4.52203,3.69725 -7.79714,6.16208 -2.79053,2.46483 -2.42188,2.46483 -1.98135,2.46483 -1.51498,2.46484 -1.06915,2.46483 -0.68424,2.46483 -0.38976,2.46483 -0.26447,3.69725 -0.27563,4.92966 -0.44618,3.69725 -0.73186,3.69725 -1.29161,4.92966 -1.65319,6.16208 -0.80051,3.69724 -0.59371,3.69725 -0.39571,3.69725 -0.28326,4.92966 -0.0821,4.92967 v 0" /></g></g><g
       id="g484"><path
         id="path486"
         style="fill:none;stroke:#000000;stroke-width:0.80000001;stroke-linecap:square;stroke-linejoin:miter;stroke-miterlimit:10;stroke-dasharray:none;stroke-opacity:1"
         d="m 371.7125,37.54375 v 311.46" /><text
         id="text490"
         style="font-variant:normal;font-weight:bold;font-size:12px;font-family:'DejaVu Sans';-inkscape-font-specification:DejaVuSans-Bold;writing-mode:lr-tb;fill:#000000;fill-opacity:1;fill-rule:nonzero;stroke:none"
         transform="matrix(1,0,0,-1,49.407812,422.93875)"><tspan
           id="tspan488"
           y="0"
           x="0 11.94 20.076 28.667999 32.784 40.883999 49.428001 53.604 59.52 67.655998 75.480003 83.615997 92.160004 100.704 108.84 113.016 120.84 127.98 132.15601 139.272 147.37199 151.48801 159.73199 165.64799 169.76401 177.89999 182.076 190.668 198.804 207.34801 214.48801 218.604 224.34 232.164 236.34 244.44 250.17599 254.35201 262.452 266.62799 272.54401 280.67999 289.272 293.388 301.63199 310.17599 314.35199 318.46799 326.604 334.42801 342.564">Median revenue vs calorie density at a region level</tspan></text>
</g></g></svg>