<?xml version="1.0" encoding="UTF-8" standalone="no"?>
<svg
   xmlns:dc="http://purl.org/dc/elements/1.1/"
   xmlns:cc="http://creativecommons.org/ns#"
   xmlns:rdf="http://www.w3.org/1999/02/22-rdf-syntax-ns#"
   xmlns:svg="http://www.w3.org/2000/svg"
   xmlns="http://www.w3.org/2000/svg"
   viewBox="0 0 577.50415 585.685"
   height="585.685"
   width="577.50415"
   xml:space="preserve"
   id="svg2"
   version="1.1"><metadata
     id="metadata8"><rdf:RDF><cc:Work
         rdf:about=""><dc:format>image/svg+xml</dc:format><dc:type
           rdf:resource="http://purl.org/dc/dcmitype/StillImage" /></cc:Work></rdf:RDF></metadata><defs
     id="defs6"><clipPath
       id="clipPath22"
       clipPathUnits="userSpaceOnUse"><path
         id="path20"
         d="M 53.309375,37.54375 H 359.15062 v 311.46 H 53.309375 Z" /></clipPath><clipPath
       id="clipPath32"
       clipPathUnits="userSpaceOnUse"><path
         id="path30"
         d="m -3.5,-3.5 h 7 v 7 h -7 z" /></clipPath><clipPath
       id="clipPath44"
       clipPathUnits="userSpaceOnUse"><path
         id="path42"
         d="m -3.5,-3.5 h 7 v 7 h -7 z" /></clipPath><clipPath
       id="clipPath56"
       clipPathUnits="userSpaceOnUse"><path
         id="path54"
         d="m -3.5,-3.5 h 7 v 7 h -7 z" /></clipPath><clipPath
       id="clipPath68"
       clipPathUnits="userSpaceOnUse"><path
         id="path66"
         d="m -3.5,-3.5 h 7 v 7 h -7 z" /></clipPath><clipPath
       id="clipPath80"
       clipPathUnits="userSpaceOnUse"><path
         id="path78"
         d="m -3.5,-3.5 h 7 v 7 h -7 z" /></clipPath><clipPath
       id="clipPath92"
       clipPathUnits="userSpaceOnUse"><path
         id="path90"
         d="m -3.5,-3.5 h 7 v 7 h -7 z" /></clipPath><clipPath
       id="clipPath104"
       clipPathUnits="userSpaceOnUse"><path
         id="path102"
         d="m -3.5,-3.5 h 7 v 7 h -7 z" /></clipPath><clipPath
       id="clipPath116"
       clipPathUnits="userSpaceOnUse"><path
         id="path114"
         d="m -3.5,-3.5 h 7 v 7 h -7 z" /></clipPath><clipPath
       id="clipPath128"
       clipPathUnits="userSpaceOnUse"><path
         id="path126"
         d="m -3.5,-3.5 h 7 v 7 h -7 z" /></clipPath><clipPath
       id="clipPath140"
       clipPathUnits="userSpaceOnUse"><path
         id="path138"
         d="m -3.5,-3.5 h 7 v 7 h -7 z" /></clipPath><clipPath
       id="clipPath152"
       clipPathUnits="userSpaceOnUse"><path
         id="path150"
         d="m -3.5,-3.5 h 7 v 7 h -7 z" /></clipPath><clipPath
       id="clipPath164"
       clipPathUnits="userSpaceOnUse"><path
         id="path162"
         d="m -3.5,-3.5 h 7 v 7 h -7 z" /></clipPath><clipPath
       id="clipPath174"
       clipPathUnits="userSpaceOnUse"><path
         id="path172"
         d="M 53.309375,37.54375 H 359.15062 v 311.46 H 53.309375 Z" /></clipPath><clipPath
       id="clipPath230"
       clipPathUnits="userSpaceOnUse"><path
         id="path228"
         d="M -1021,-463 H 1794 V 1233 H -1021 Z" /></clipPath><clipPath
       id="clipPath286"
       clipPathUnits="userSpaceOnUse"><path
         id="path284"
         d="M 53.309375,37.54375 H 359.15062 v 311.46 H 53.309375 Z" /></clipPath><clipPath
       id="clipPath304"
       clipPathUnits="userSpaceOnUse"><path
         id="path302"
         d="M 53.309375,359.74375 H 359.15062 v 53.7 H 53.309375 Z" /></clipPath><clipPath
       id="clipPath314"
       clipPathUnits="userSpaceOnUse"><path
         id="path312"
         d="M 53.309375,359.74375 H 359.15062 v 53.7 H 53.309375 Z" /></clipPath><clipPath
       id="clipPath324"
       clipPathUnits="userSpaceOnUse"><path
         id="path322"
         d="M 53.309375,359.74375 H 359.15062 v 53.7 H 53.309375 Z" /></clipPath><clipPath
       id="clipPath348"
       clipPathUnits="userSpaceOnUse"><path
         id="path346"
         d="M 53.309375,359.74375 H 359.15062 v 53.7 H 53.309375 Z" /></clipPath><clipPath
       id="clipPath364"
       clipPathUnits="userSpaceOnUse"><path
         id="path362"
         d="m 369.69687,37.54375 h 52.73125 v 311.46 h -52.73125 z" /></clipPath><clipPath
       id="clipPath374"
       clipPathUnits="userSpaceOnUse"><path
         id="path372"
         d="m 369.69687,37.54375 h 52.73125 v 311.46 h -52.73125 z" /></clipPath><clipPath
       id="clipPath384"
       clipPathUnits="userSpaceOnUse"><path
         id="path382"
         d="m 369.69687,37.54375 h 52.73125 v 311.46 h -52.73125 z" /></clipPath><clipPath
       id="clipPath394"
       clipPathUnits="userSpaceOnUse"><path
         id="path392"
         d="m 369.69687,37.54375 h 52.73125 v 311.46 h -52.73125 z" /></clipPath><clipPath
       id="clipPath404"
       clipPathUnits="userSpaceOnUse"><path
         id="path402"
         d="m 369.69687,37.54375 h 52.73125 v 311.46 h -52.73125 z" /></clipPath><clipPath
       id="clipPath414"
       clipPathUnits="userSpaceOnUse"><path
         id="path412"
         d="m 369.69687,37.54375 h 52.73125 v 311.46 h -52.73125 z" /></clipPath><clipPath
       id="clipPath424"
       clipPathUnits="userSpaceOnUse"><path
         id="path422"
         d="m 369.69687,37.54375 h 52.73125 v 311.46 h -52.73125 z" /></clipPath><clipPath
       id="clipPath434"
       clipPathUnits="userSpaceOnUse"><path
         id="path432"
         d="m 369.69687,37.54375 h 52.73125 v 311.46 h -52.73125 z" /></clipPath><clipPath
       id="clipPath460"
       clipPathUnits="userSpaceOnUse"><path
         id="path458"
         d="m 369.69687,37.54375 h 52.73125 v 311.46 h -52.73125 z" /></clipPath></defs><g
     transform="matrix(1.3333333,0,0,-1.3333333,0,585.685)"
     id="g10"><path
       id="path12"
       style="fill:#ffffff;fill-opacity:1;fill-rule:nonzero;stroke:none"
       d="M 0,0 H 433.12812 V 439.26375 H 0 Z" /><path
       id="path14"
       style="fill:#ffffff;fill-opacity:1;fill-rule:nonzero;stroke:none"
       d="M 53.309375,37.54375 H 359.15063 v 311.46 H 53.309375 Z" /><g
       id="g16"><g
         clip-path="url(#clipPath22)"
         id="g18"><g
           transform="translate(252.4037,174.0587)"
           id="g24"><g
             id="g26"><g
               clip-path="url(#clipPath32)"
               id="g28"><path
                 id="path34"
                 style="fill:#0000ff;fill-opacity:0.8;fill-rule:nonzero;stroke:#0000ff;stroke-width:1;stroke-linecap:butt;stroke-linejoin:round;stroke-miterlimit:10;stroke-dasharray:none;stroke-opacity:0.8"
                 d="m 0,-3 c 0.795609,0 1.55874,0.316099 2.12132,0.87868 C 2.683901,-1.55874 3,-0.795609 3,0 3,0.795609 2.683901,1.55874 2.12132,2.12132 1.55874,2.683901 0.795609,3 0,3 -0.795609,3 -1.55874,2.683901 -2.12132,2.12132 -2.683901,1.55874 -3,0.795609 -3,0 -3,-0.795609 -2.683901,-1.55874 -2.12132,-2.12132 -1.55874,-2.683901 -0.795609,-3 0,-3 Z" /></g></g><g
             transform="translate(8.9057124,-28.050888)"
             id="g36"><g
               id="g38"><g
                 clip-path="url(#clipPath44)"
                 id="g40"><path
                   id="path46"
                   style="fill:#0000ff;fill-opacity:0.8;fill-rule:nonzero;stroke:#0000ff;stroke-width:1;stroke-linecap:butt;stroke-linejoin:round;stroke-miterlimit:10;stroke-dasharray:none;stroke-opacity:0.8"
                   d="m 0,-3 c 0.795609,0 1.55874,0.316099 2.12132,0.87868 C 2.683901,-1.55874 3,-0.795609 3,0 3,0.795609 2.683901,1.55874 2.12132,2.12132 1.55874,2.683901 0.795609,3 0,3 -0.795609,3 -1.55874,2.683901 -2.12132,2.12132 -2.683901,1.55874 -3,0.795609 -3,0 -3,-0.795609 -2.683901,-1.55874 -2.12132,-2.12132 -1.55874,-2.683901 -0.795609,-3 0,-3 Z" /></g></g><g
               transform="translate(4.160038,-2.9951242)"
               id="g48"><g
                 id="g50"><g
                   clip-path="url(#clipPath56)"
                   id="g52"><path
                     id="path58"
                     style="fill:#0000ff;fill-opacity:0.8;fill-rule:nonzero;stroke:#0000ff;stroke-width:1;stroke-linecap:butt;stroke-linejoin:round;stroke-miterlimit:10;stroke-dasharray:none;stroke-opacity:0.8"
                     d="m 0,-3 c 0.795609,0 1.55874,0.316099 2.12132,0.87868 C 2.683901,-1.55874 3,-0.795609 3,0 3,0.795609 2.683901,1.55874 2.12132,2.12132 1.55874,2.683901 0.795609,3 0,3 -0.795609,3 -1.55874,2.683901 -2.12132,2.12132 -2.683901,1.55874 -3,0.795609 -3,0 -3,-0.795609 -2.683901,-1.55874 -2.12132,-2.12132 -1.55874,-2.683901 -0.795609,-3 0,-3 Z" /></g></g><g
                 transform="translate(6.556856,30.76509)"
                 id="g60"><g
                   id="g62"><g
                     clip-path="url(#clipPath68)"
                     id="g64"><path
                       id="path70"
                       style="fill:#0000ff;fill-opacity:0.8;fill-rule:nonzero;stroke:#0000ff;stroke-width:1;stroke-linecap:butt;stroke-linejoin:round;stroke-miterlimit:10;stroke-dasharray:none;stroke-opacity:0.8"
                       d="m 0,-3 c 0.795609,0 1.55874,0.316099 2.12132,0.87868 C 2.683901,-1.55874 3,-0.795609 3,0 3,0.795609 2.683901,1.55874 2.12132,2.12132 1.55874,2.683901 0.795609,3 0,3 -0.795609,3 -1.55874,2.683901 -2.12132,2.12132 -2.683901,1.55874 -3,0.795609 -3,0 -3,-0.795609 -2.683901,-1.55874 -2.12132,-2.12132 -1.55874,-2.683901 -0.795609,-3 0,-3 Z" /></g></g><g
                   transform="translate(-64.257189,-10.055355)"
                   id="g72"><g
                     id="g74"><g
                       clip-path="url(#clipPath80)"
                       id="g76"><path
                         id="path82"
                         style="fill:#0000ff;fill-opacity:0.8;fill-rule:nonzero;stroke:#0000ff;stroke-width:1;stroke-linecap:butt;stroke-linejoin:round;stroke-miterlimit:10;stroke-dasharray:none;stroke-opacity:0.8"
                         d="m 0,-3 c 0.795609,0 1.55874,0.316099 2.12132,0.87868 C 2.683901,-1.55874 3,-0.795609 3,0 3,0.795609 2.683901,1.55874 2.12132,2.12132 1.55874,2.683901 0.795609,3 0,3 -0.795609,3 -1.55874,2.683901 -2.12132,2.12132 -2.683901,1.55874 -3,0.795609 -3,0 -3,-0.795609 -2.683901,-1.55874 -2.12132,-2.12132 -1.55874,-2.683901 -0.795609,-3 0,-3 Z" /></g></g><g
                     transform="translate(57.162658,-17.152767)"
                     id="g84"><g
                       id="g86"><g
                         clip-path="url(#clipPath92)"
                         id="g88"><path
                           id="path94"
                           style="fill:#0000ff;fill-opacity:0.8;fill-rule:nonzero;stroke:#0000ff;stroke-width:1;stroke-linecap:butt;stroke-linejoin:round;stroke-miterlimit:10;stroke-dasharray:none;stroke-opacity:0.8"
                           d="m 0,-3 c 0.795609,0 1.55874,0.316099 2.12132,0.87868 C 2.683901,-1.55874 3,-0.795609 3,0 3,0.795609 2.683901,1.55874 2.12132,2.12132 1.55874,2.683901 0.795609,3 0,3 -0.795609,3 -1.55874,2.683901 -2.12132,2.12132 -2.683901,1.55874 -3,0.795609 -3,0 -3,-0.795609 -2.683901,-1.55874 -2.12132,-2.12132 -1.55874,-2.683901 -0.795609,-3 0,-3 Z" /></g></g><g
                       transform="translate(-47.634652,9.7661706)"
                       id="g96"><g
                         id="g98"><g
                           clip-path="url(#clipPath104)"
                           id="g100"><path
                             id="path106"
                             style="fill:#0000ff;fill-opacity:0.8;fill-rule:nonzero;stroke:#0000ff;stroke-width:1;stroke-linecap:butt;stroke-linejoin:round;stroke-miterlimit:10;stroke-dasharray:none;stroke-opacity:0.8"
                             d="m 0,-3 c 0.795609,0 1.55874,0.316099 2.12132,0.87868 C 2.683901,-1.55874 3,-0.795609 3,0 3,0.795609 2.683901,1.55874 2.12132,2.12132 1.55874,2.683901 0.795609,3 0,3 -0.795609,3 -1.55874,2.683901 -2.12132,2.12132 -2.683901,1.55874 -3,0.795609 -3,0 -3,-0.795609 -2.683901,-1.55874 -2.12132,-2.12132 -1.55874,-2.683901 -0.795609,-3 0,-3 Z" /></g></g><g
                         transform="translate(44.789772,12.269681)"
                         id="g108"><g
                           id="g110"><g
                             clip-path="url(#clipPath116)"
                             id="g112"><path
                               id="path118"
                               style="fill:#0000ff;fill-opacity:0.8;fill-rule:nonzero;stroke:#0000ff;stroke-width:1;stroke-linecap:butt;stroke-linejoin:round;stroke-miterlimit:10;stroke-dasharray:none;stroke-opacity:0.8"
                               d="m 0,-3 c 0.795609,0 1.55874,0.316099 2.12132,0.87868 C 2.683901,-1.55874 3,-0.795609 3,0 3,0.795609 2.683901,1.55874 2.12132,2.12132 1.55874,2.683901 0.795609,3 0,3 -0.795609,3 -1.55874,2.683901 -2.12132,2.12132 -2.683901,1.55874 -3,0.795609 -3,0 -3,-0.795609 -2.683901,-1.55874 -2.12132,-2.12132 -1.55874,-2.683901 -0.795609,-3 0,-3 Z" /></g></g><g
                           transform="translate(-66.464685,12.170532)"
                           id="g120"><g
                             id="g122"><g
                               clip-path="url(#clipPath128)"
                               id="g124"><path
                                 id="path130"
                                 style="fill:#0000ff;fill-opacity:0.8;fill-rule:nonzero;stroke:#0000ff;stroke-width:1;stroke-linecap:butt;stroke-linejoin:round;stroke-miterlimit:10;stroke-dasharray:none;stroke-opacity:0.8"
                                 d="m 0,-3 c 0.795609,0 1.55874,0.316099 2.12132,0.87868 C 2.683901,-1.55874 3,-0.795609 3,0 3,0.795609 2.683901,1.55874 2.12132,2.12132 1.55874,2.683901 0.795609,3 0,3 -0.795609,3 -1.55874,2.683901 -2.12132,2.12132 -2.683901,1.55874 -3,0.795609 -3,0 -3,-0.795609 -2.683901,-1.55874 -2.12132,-2.12132 -1.55874,-2.683901 -0.795609,-3 0,-3 Z" /></g></g><g
                             transform="translate(-16.938019,-8.4317911)"
                             id="g132"><g
                               id="g134"><g
                                 clip-path="url(#clipPath140)"
                                 id="g136"><path
                                   id="path142"
                                   style="fill:#0000ff;fill-opacity:0.8;fill-rule:nonzero;stroke:#0000ff;stroke-width:1;stroke-linecap:butt;stroke-linejoin:round;stroke-miterlimit:10;stroke-dasharray:none;stroke-opacity:0.8"
                                   d="m 0,-3 c 0.795609,0 1.55874,0.316099 2.12132,0.87868 C 2.683901,-1.55874 3,-0.795609 3,0 3,0.795609 2.683901,1.55874 2.12132,2.12132 1.55874,2.683901 0.795609,3 0,3 -0.795609,3 -1.55874,2.683901 -2.12132,2.12132 -2.683901,1.55874 -3,0.795609 -3,0 -3,-0.795609 -2.683901,-1.55874 -2.12132,-2.12132 -1.55874,-2.683901 -0.795609,-3 0,-3 Z" /></g></g><g
                               transform="translate(59.517386,-9.7992203)"
                               id="g144"><g
                                 id="g146"><g
                                   clip-path="url(#clipPath152)"
                                   id="g148"><path
                                   id="path154"
                                   style="fill:#0000ff;fill-opacity:0.8;fill-rule:nonzero;stroke:#0000ff;stroke-width:1;stroke-linecap:butt;stroke-linejoin:round;stroke-miterlimit:10;stroke-dasharray:none;stroke-opacity:0.8"
                                   d="m 0,-3 c 0.795609,0 1.55874,0.316099 2.12132,0.87868 C 2.683901,-1.55874 3,-0.795609 3,0 3,0.795609 2.683901,1.55874 2.12132,2.12132 1.55874,2.683901 0.795609,3 0,3 -0.795609,3 -1.55874,2.683901 -2.12132,2.12132 -2.683901,1.55874 -3,0.795609 -3,0 -3,-0.795609 -2.683901,-1.55874 -2.12132,-2.12132 -1.55874,-2.683901 -0.795609,-3 0,-3 Z" /></g></g><g
                                 transform="translate(-97.767878,105.87041)"
                                 id="g156"><g
                                   id="g158"><g
                                   clip-path="url(#clipPath164)"
                                   id="g160"><path
                                   id="path166"
                                   style="fill:#0000ff;fill-opacity:0.8;fill-rule:nonzero;stroke:#0000ff;stroke-width:1;stroke-linecap:butt;stroke-linejoin:round;stroke-miterlimit:10;stroke-dasharray:none;stroke-opacity:0.8"
                                   d="m 0,-3 c 0.795609,0 1.55874,0.316099 2.12132,0.87868 C 2.683901,-1.55874 3,-0.795609 3,0 3,0.795609 2.683901,1.55874 2.12132,2.12132 1.55874,2.683901 0.795609,3 0,3 -0.795609,3 -1.55874,2.683901 -2.12132,2.12132 -2.683901,1.55874 -3,0.795609 -3,0 -3,-0.795609 -2.683901,-1.55874 -2.12132,-2.12132 -1.55874,-2.683901 -0.795609,-3 0,-3 Z" /></g></g></g></g></g></g></g></g></g></g></g></g></g></g></g></g><g
       id="g168"><g
         clip-path="url(#clipPath174)"
         id="g170"><path
           id="path176"
           style="fill:#0000ff;fill-opacity:0.15;fill-rule:nonzero;stroke:none"
           d="M 53.309375,334.84648 V 165.20815 l 3.089306,-0.1316 3.089305,-0.13146 3.089306,-0.0554 3.089305,-0.008 3.089306,-0.008 3.089305,-0.008 3.089306,-0.007 3.089305,-0.005 3.089306,-0.005 3.089306,-0.005 3.089305,-0.11098 3.089306,-0.0848 3.089305,0.0178 3.089306,0.0178 3.089305,0.0178 3.089302,0.0178 3.08931,0.0178 3.08931,0.0178 3.0893,0.0135 3.08931,-0.004 3.0893,-0.004 3.08931,-0.004 3.0893,-0.004 3.08931,-0.004 3.0893,-0.004 3.08931,-0.004 3.0893,-0.004 3.08931,-0.004 3.08931,-0.004 3.0893,-0.004 3.08931,-0.004 3.0893,-0.094 3.08931,-0.0232 3.0893,0.0658 3.08931,-0.021 3.0893,-0.23932 3.08931,-0.23932 3.08931,-0.23931 3.0893,-0.0181 3.08931,0.0682 3.0893,0.0699 3.08931,-0.0217 3.0893,0.0907 3.08931,0.0378 3.08931,-0.37132 3.0893,-0.20701 3.08931,-0.29166 3.0893,-0.0665 3.08931,-0.30207 3.0893,-0.22283 3.08931,-0.32076 3.0893,-0.37649 3.08931,-0.43101 3.0893,-0.26888 3.08931,-0.81073 3.08931,-0.45026 3.0893,-0.81938 3.08931,-1.57254 3.0893,-1.07214 3.08931,-1.46916 3.0893,-2.19982 3.08931,-1.53548 3.0893,-2.3556 3.08931,-2.53432 3.08931,-2.53314 3.0893,-2.99482 3.08931,-2.63597 3.0893,-2.4415 3.08931,-2.44074 3.0893,-2.4447 3.08931,-2.93313 3.0893,-3.11255 3.08931,-2.30377 3.08931,-2.34074 3.0893,-2.32476 3.08931,-2.73354 3.0893,-2.82015 3.08931,-2.79721 3.0893,-2.53333 3.08931,-2.53333 3.0893,-2.52684 3.08931,-2.640883 3.08931,-2.574908 3.0893,-2.672991 3.08931,-2.720746 3.0893,-2.849933 3.08931,-2.727664 3.0893,-2.587741 3.08931,-2.5153 3.0893,-2.82873 3.08931,-2.909193 3.08931,-2.717598 3.0893,-2.717597 3.08931,-2.846898 3.0893,-3.006615 3.08931,-3.003263 3.0893,-3.003262 3.08931,-3.003263 3.08931,-3.003262 v 112.814107 0 l -3.08931,-0.0676 -3.08931,-0.0676 -3.0893,0.0451 -3.08931,0.0605 -3.0893,0.0605 -3.08931,0.0605 -3.0893,0.0605 -3.08931,0.0606 -3.08931,0.0605 -3.0893,0.0605 -3.08931,0.0605 -3.0893,0.0583 -3.08931,0.0576 -3.0893,-0.0384 -3.08931,-0.0647 -3.0893,-0.0647 -3.08931,-0.0647 -3.08931,0.069 -3.0893,0.15319 -3.08931,0.16281 -3.0893,0.16165 -3.08931,0.12886 -3.0893,-0.0186 -3.08931,0.0625 -3.0893,0.0219 -3.08931,0.0181 -3.08931,0.0169 -3.0893,0.0626 -3.08931,0.27637 -3.0893,0.084 -3.08931,-0.0442 -3.0893,0.23569 -3.08931,0.75303 -3.0893,0.77203 -3.08931,1.23256 -3.08931,1.14868 -3.0893,1.88919 -3.08931,2.08134 -3.0893,1.93953 -3.08931,2.32678 -3.0893,2.388 -3.08931,2.12499 -3.0893,2.27287 -3.08931,2.45154 -3.08931,2.49258 -3.0893,2.45225 -3.08931,2.43166 -3.0893,2.40286 -3.08931,2.42902 -3.0893,2.45247 -3.08931,2.79951 -3.0893,2.5924 -3.08931,2.65406 -3.0893,2.54695 -3.08931,2.55087 -3.08931,2.54978 -3.0893,2.54251 -3.08931,2.54252 -3.0893,2.54251 -3.08931,2.7208 -3.0893,2.80394 -3.08931,2.8057 -3.08931,2.74365 -3.0893,2.50043 -3.08931,2.83356 -3.0893,2.45275 -3.08931,2.81035 -3.0893,2.81784 -3.08931,2.8162 -3.0893,2.82376 -3.08931,2.95478 -3.08931,2.74589 -3.0893,2.61835 -3.08931,2.59789 -3.0893,2.59789 -3.08931,2.59063 -3.0893,2.59028 -3.08931,2.59027 -3.0893,2.74502 -3.08931,2.63273 -3.0893,2.64871 -3.08931,2.81713 -3.08931,2.71694 -3.089302,2.71694 -3.089305,2.71695 -3.089306,2.71694 -3.089305,2.71694 -3.089306,2.74225 -3.089305,2.80914 -3.089306,2.80763 -3.089306,2.80418 -3.089305,2.80418 -3.089306,2.80418 -3.089305,2.80418 -3.089306,2.77916 -3.089305,2.64927 -3.089306,2.64928 -3.089305,2.73736 -3.089306,3.06633 z" /></g></g><g
       id="g178"><path
         id="path180"
         style="fill:#000000;fill-opacity:1;fill-rule:nonzero;stroke:#000000;stroke-width:0.80000001;stroke-linecap:butt;stroke-linejoin:round;stroke-miterlimit:10;stroke-dasharray:none;stroke-opacity:1"
         d="m 72.487102,37.54375 v -3.5" /><text
         id="text184"
         style="font-variant:normal;font-weight:normal;font-size:10px;font-family:'DejaVu Sans';-inkscape-font-specification:DejaVuSans;writing-mode:lr-tb;fill:#000000;fill-opacity:1;fill-rule:nonzero;stroke:none"
         transform="matrix(1,0,0,-1,56.588665,22.95)"><tspan
           id="tspan182"
           y="0"
           x="0 6.3600001 12.72 19.08 25.440001">17000</tspan></text>
<path
         id="path186"
         style="fill:#000000;fill-opacity:1;fill-rule:nonzero;stroke:#000000;stroke-width:0.80000001;stroke-linecap:butt;stroke-linejoin:round;stroke-miterlimit:10;stroke-dasharray:none;stroke-opacity:1"
         d="m 125.4973,37.54375 v -3.5" /><text
         id="text190"
         style="font-variant:normal;font-weight:normal;font-size:10px;font-family:'DejaVu Sans';-inkscape-font-specification:DejaVuSans;writing-mode:lr-tb;fill:#000000;fill-opacity:1;fill-rule:nonzero;stroke:none"
         transform="matrix(1,0,0,-1,109.59886,22.95)"><tspan
           id="tspan188"
           y="0"
           x="0 6.3600001 12.72 19.08 25.440001">18000</tspan></text>
<path
         id="path192"
         style="fill:#000000;fill-opacity:1;fill-rule:nonzero;stroke:#000000;stroke-width:0.80000001;stroke-linecap:butt;stroke-linejoin:round;stroke-miterlimit:10;stroke-dasharray:none;stroke-opacity:1"
         d="m 178.50749,37.54375 v -3.5" /><text
         id="text196"
         style="font-variant:normal;font-weight:normal;font-size:10px;font-family:'DejaVu Sans';-inkscape-font-specification:DejaVuSans;writing-mode:lr-tb;fill:#000000;fill-opacity:1;fill-rule:nonzero;stroke:none"
         transform="matrix(1,0,0,-1,162.60905,22.95)"><tspan
           id="tspan194"
           y="0"
           x="0 6.3600001 12.72 19.08 25.440001">19000</tspan></text>
<path
         id="path198"
         style="fill:#000000;fill-opacity:1;fill-rule:nonzero;stroke:#000000;stroke-width:0.80000001;stroke-linecap:butt;stroke-linejoin:round;stroke-miterlimit:10;stroke-dasharray:none;stroke-opacity:1"
         d="m 231.51768,37.54375 v -3.5" /><text
         id="text202"
         style="font-variant:normal;font-weight:normal;font-size:10px;font-family:'DejaVu Sans';-inkscape-font-specification:DejaVuSans;writing-mode:lr-tb;fill:#000000;fill-opacity:1;fill-rule:nonzero;stroke:none"
         transform="matrix(1,0,0,-1,215.61924,22.95)"><tspan
           id="tspan200"
           y="0"
           x="0 6.3600001 12.72 19.08 25.440001">20000</tspan></text>
<path
         id="path204"
         style="fill:#000000;fill-opacity:1;fill-rule:nonzero;stroke:#000000;stroke-width:0.80000001;stroke-linecap:butt;stroke-linejoin:round;stroke-miterlimit:10;stroke-dasharray:none;stroke-opacity:1"
         d="m 284.52787,37.54375 v -3.5" /><text
         id="text208"
         style="font-variant:normal;font-weight:normal;font-size:10px;font-family:'DejaVu Sans';-inkscape-font-specification:DejaVuSans;writing-mode:lr-tb;fill:#000000;fill-opacity:1;fill-rule:nonzero;stroke:none"
         transform="matrix(1,0,0,-1,268.62944,22.95)"><tspan
           id="tspan206"
           y="0"
           x="0 6.3600001 12.72 19.08 25.440001">21000</tspan></text>
<path
         id="path210"
         style="fill:#000000;fill-opacity:1;fill-rule:nonzero;stroke:#000000;stroke-width:0.80000001;stroke-linecap:butt;stroke-linejoin:round;stroke-miterlimit:10;stroke-dasharray:none;stroke-opacity:1"
         d="m 337.53807,37.54375 v -3.5" /><text
         id="text214"
         style="font-variant:normal;font-weight:normal;font-size:10px;font-family:'DejaVu Sans';-inkscape-font-specification:DejaVuSans;writing-mode:lr-tb;fill:#000000;fill-opacity:1;fill-rule:nonzero;stroke:none"
         transform="matrix(1,0,0,-1,321.63963,22.95)"><tspan
           id="tspan212"
           y="0"
           x="0 6.3600001 12.72 19.08 25.440001">22000</tspan></text>
<g
         transform="translate(157.17531,9.278125)"
         id="g216"><text
           id="text220"
           style="font-variant:normal;font-weight:normal;font-size:10px;font-family:'DejaVu Sans';-inkscape-font-specification:DejaVuSans;writing-mode:lr-tb;fill:#000000;fill-opacity:1;fill-rule:nonzero;stroke:none"
           transform="scale(1,-1)"><tspan
             id="tspan218"
             y="0"
             x="0 8.6300001 14.78 21.129999 23.91 30.040001 36.380001 39.560001 43.669998 49.82 55.740002 61.889999 68.230003 74.57 80.720001 83.900002 94.155273">Median revenue ()</tspan></text>
<g
           transform="matrix(0.01,0,0,0.01,87.792969,0)"
           id="g222"><g
             id="g224"><g
               clip-path="url(#clipPath230)"
               id="g226"><path
                 id="path232"
                 style="fill:#000000;fill-opacity:1;fill-rule:nonzero;stroke:none"
                 d="M 570,673 V 569 c -30,34 -59,58 -86,73 -28,14 -58,22 -91,22 -52,0 -94,-17 -126,-49 -33,-33 -55,-80 -65,-140 H 484 L 457,415 H 194 c -1,-8 -1,-16 -1,-23 0,-8 0,-17 0,-28 0,-11 0,-20 0,-27 0,-8 0,-15 1,-23 H 412 L 385,254 H 202 c 10,-61 32,-108 65,-141 32,-33 74,-49 126,-49 33,0 63,7 91,22 27,14 56,39 86,73 V 56 C 540,32 511,15 481,4 451,-7 420,-13 389,-13 311,-13 248,10 198,57 148,103 116,169 103,254 H 0 l 27,60 h 68 c 0,7 -1,14 -1,22 0,8 0,17 0,28 0,11 0,20 0,28 0,8 1,15 1,23 H 0 l 27,60 h 76 c 13,84 45,149 95,196 50,47 114,71 191,71 32,0 63,-6 93,-17 30,-12 59,-29 88,-52" /></g></g></g></g><path
         id="path234"
         style="fill:#000000;fill-opacity:1;fill-rule:nonzero;stroke:#000000;stroke-width:0.80000001;stroke-linecap:butt;stroke-linejoin:round;stroke-miterlimit:10;stroke-dasharray:none;stroke-opacity:1"
         d="m 53.309375,66.482102 h -3.5" /><text
         id="text238"
         style="font-variant:normal;font-weight:normal;font-size:10px;font-family:'DejaVu Sans';-inkscape-font-specification:DejaVuSans;writing-mode:lr-tb;fill:#000000;fill-opacity:1;fill-rule:nonzero;stroke:none"
         transform="matrix(1,0,0,-1,39.95,62.685227)"><tspan
           id="tspan236"
           y="0"
           x="0">0</tspan></text>
<path
         id="path240"
         style="fill:#000000;fill-opacity:1;fill-rule:nonzero;stroke:#000000;stroke-width:0.80000001;stroke-linecap:butt;stroke-linejoin:round;stroke-miterlimit:10;stroke-dasharray:none;stroke-opacity:1"
         d="m 53.309375,107.79416 h -3.5" /><text
         id="text244"
         style="font-variant:normal;font-weight:normal;font-size:10px;font-family:'DejaVu Sans';-inkscape-font-specification:DejaVuSans;writing-mode:lr-tb;fill:#000000;fill-opacity:1;fill-rule:nonzero;stroke:none"
         transform="matrix(1,0,0,-1,27.23125,103.99729)"><tspan
           id="tspan242"
           y="0"
           x="0 6.3600001 12.72">250</tspan></text>
<path
         id="path246"
         style="fill:#000000;fill-opacity:1;fill-rule:nonzero;stroke:#000000;stroke-width:0.80000001;stroke-linecap:butt;stroke-linejoin:round;stroke-miterlimit:10;stroke-dasharray:none;stroke-opacity:1"
         d="m 53.309375,149.10622 h -3.5" /><text
         id="text250"
         style="font-variant:normal;font-weight:normal;font-size:10px;font-family:'DejaVu Sans';-inkscape-font-specification:DejaVuSans;writing-mode:lr-tb;fill:#000000;fill-opacity:1;fill-rule:nonzero;stroke:none"
         transform="matrix(1,0,0,-1,27.23125,145.30934)"><tspan
           id="tspan248"
           y="0"
           x="0 6.3600001 12.72">500</tspan></text>
<path
         id="path252"
         style="fill:#000000;fill-opacity:1;fill-rule:nonzero;stroke:#000000;stroke-width:0.80000001;stroke-linecap:butt;stroke-linejoin:round;stroke-miterlimit:10;stroke-dasharray:none;stroke-opacity:1"
         d="m 53.309375,190.41828 h -3.5" /><text
         id="text256"
         style="font-variant:normal;font-weight:normal;font-size:10px;font-family:'DejaVu Sans';-inkscape-font-specification:DejaVuSans;writing-mode:lr-tb;fill:#000000;fill-opacity:1;fill-rule:nonzero;stroke:none"
         transform="matrix(1,0,0,-1,27.23125,186.6214)"><tspan
           id="tspan254"
           y="0"
           x="0 6.3600001 12.72">750</tspan></text>
<path
         id="path258"
         style="fill:#000000;fill-opacity:1;fill-rule:nonzero;stroke:#000000;stroke-width:0.80000001;stroke-linecap:butt;stroke-linejoin:round;stroke-miterlimit:10;stroke-dasharray:none;stroke-opacity:1"
         d="m 53.309375,231.73034 h -3.5" /><text
         id="text262"
         style="font-variant:normal;font-weight:normal;font-size:10px;font-family:'DejaVu Sans';-inkscape-font-specification:DejaVuSans;writing-mode:lr-tb;fill:#000000;fill-opacity:1;fill-rule:nonzero;stroke:none"
         transform="matrix(1,0,0,-1,20.871875,227.93346)"><tspan
           id="tspan260"
           y="0"
           x="0 6.3600001 12.72 19.08">1000</tspan></text>
<path
         id="path264"
         style="fill:#000000;fill-opacity:1;fill-rule:nonzero;stroke:#000000;stroke-width:0.80000001;stroke-linecap:butt;stroke-linejoin:round;stroke-miterlimit:10;stroke-dasharray:none;stroke-opacity:1"
         d="m 53.309375,273.04239 h -3.5" /><text
         id="text268"
         style="font-variant:normal;font-weight:normal;font-size:10px;font-family:'DejaVu Sans';-inkscape-font-specification:DejaVuSans;writing-mode:lr-tb;fill:#000000;fill-opacity:1;fill-rule:nonzero;stroke:none"
         transform="matrix(1,0,0,-1,20.871875,269.24552)"><tspan
           id="tspan266"
           y="0"
           x="0 6.3600001 12.72 19.08">1250</tspan></text>
<path
         id="path270"
         style="fill:#000000;fill-opacity:1;fill-rule:nonzero;stroke:#000000;stroke-width:0.80000001;stroke-linecap:butt;stroke-linejoin:round;stroke-miterlimit:10;stroke-dasharray:none;stroke-opacity:1"
         d="m 53.309375,314.35445 h -3.5" /><text
         id="text274"
         style="font-variant:normal;font-weight:normal;font-size:10px;font-family:'DejaVu Sans';-inkscape-font-specification:DejaVuSans;writing-mode:lr-tb;fill:#000000;fill-opacity:1;fill-rule:nonzero;stroke:none"
         transform="matrix(1,0,0,-1,20.871875,310.55758)"><tspan
           id="tspan272"
           y="0"
           x="0 6.3600001 12.72 19.08">1500</tspan></text>
<text
         id="text278"
         style="font-variant:normal;font-weight:normal;font-size:10px;font-family:'DejaVu Sans';-inkscape-font-specification:DejaVuSans;writing-mode:lr-tb;fill:#000000;fill-opacity:1;fill-rule:nonzero;stroke:none"
         transform="matrix(0,1,1,0,14.79375,101.03156)"><tspan
           id="tspan276"
           y="0"
           x="0 6.98 13.11 15.89 22.01 26.120001 28.9 35.049999 38.23 44.580002 50.73 57.07 62.279999 65.059998 68.980003 74.900002 78.080002 81.980003 87.769997 93.269997 99.400002 102.18 105.36 111.71 117.86 121.97 125.15 130.36 136.50999 142.42999 145.21001 151.55 157.89999 161.08 166.28999 169.07001 174.32001 180.47">Calorie density (kcal per seving size)</tspan></text>
</g><g
       id="g280"><g
         clip-path="url(#clipPath286)"
         id="g282"><path
           id="path288"
           style="fill:none;stroke:#0000ff;stroke-width:2.25;stroke-linecap:square;stroke-linejoin:round;stroke-miterlimit:10;stroke-dasharray:none;stroke-opacity:1"
           d="m 53.309375,275.17564 3.089306,-1.81859 3.089305,-1.81858 3.089306,-1.81859 3.089305,-1.81859 3.089306,-1.81858 3.089305,-1.81859 3.089306,-1.81858 3.089305,-1.81859 3.089306,-1.81858 3.089306,-1.81859 3.089305,-1.81859 3.089306,-1.81858 3.089305,-1.81859 3.089306,-1.81858 3.089305,-1.81859 3.089302,-1.81858 3.08931,-1.81859 3.08931,-1.81859 3.0893,-1.81858 3.08931,-1.81859 3.0893,-1.81858 3.08931,-1.81859 3.0893,-1.81858 3.08931,-1.81859 3.0893,-1.81859 3.08931,-1.81858 3.0893,-1.81859 3.08931,-1.81858 3.08931,-1.81859 3.0893,-1.81859 3.08931,-1.81858 3.0893,-1.81859 3.08931,-1.81858 3.0893,-1.81859 3.08931,-1.81858 3.0893,-1.81859 3.08931,-1.81859 3.08931,-1.81858 3.0893,-1.81859 3.08931,-1.81858 3.0893,-1.81859 3.08931,-1.81858 3.0893,-1.81859 3.08931,-1.81859 3.08931,-1.81858 3.0893,-1.81859 3.08931,-1.81858 3.0893,-1.81859 3.08931,-1.81858 3.0893,-1.81859 3.08931,-1.81859 3.0893,-1.81858 3.08931,-1.81859 3.0893,-1.81858 3.08931,-1.81859 3.08931,-1.81859 3.0893,-1.81858 3.08931,-1.81859 3.0893,-1.81858 3.08931,-1.81859 3.0893,-1.81858 3.08931,-1.81859 3.0893,-1.81859 3.08931,-1.81858 3.08931,-1.81859 3.0893,-1.81858 3.08931,-1.81859 3.0893,-1.81858 3.08931,-1.81859 3.0893,-1.81859 3.08931,-1.81858 3.0893,-1.81859 3.08931,-1.81858 3.08931,-1.81859 3.0893,-1.81858 3.08931,-1.81859 3.0893,-1.81859 3.08931,-1.81858 3.0893,-1.81859 3.08931,-1.81858 3.0893,-1.81859 3.08931,-1.81858 3.08931,-1.81859 3.0893,-1.81859 3.08931,-1.81858 3.0893,-1.81859 3.08931,-1.81858 3.0893,-1.81859 3.08931,-1.81858 3.0893,-1.81859 3.08931,-1.81859 3.08931,-1.81858 3.0893,-1.81859 3.08931,-1.81858 3.0893,-1.81859 3.08931,-1.81859 3.0893,-1.818581 3.08931,-1.818586 3.08931,-1.818586" /></g></g><g
       id="g290"><path
         id="path292"
         style="fill:none;stroke:#000000;stroke-width:0.80000001;stroke-linecap:square;stroke-linejoin:miter;stroke-miterlimit:10;stroke-dasharray:none;stroke-opacity:1"
         d="m 53.309375,37.54375 v 311.46" /><path
         id="path294"
         style="fill:none;stroke:#000000;stroke-width:0.80000001;stroke-linecap:square;stroke-linejoin:miter;stroke-miterlimit:10;stroke-dasharray:none;stroke-opacity:1"
         d="M 53.309375,37.54375 H 359.15063" /><path
         id="path296"
         style="fill:#ffffff;fill-opacity:1;fill-rule:nonzero;stroke:none"
         d="M 53.309375,359.74375 H 359.15063 v 53.7 H 53.309375 Z" /></g><g
       id="g298"><g
         clip-path="url(#clipPath304)"
         id="g300"><path
           id="path306"
           style="fill:#0000ff;fill-opacity:0.4;fill-rule:nonzero;stroke:none"
           d="m 140.4337,359.74375 h 43.8642 v 14.61224 h -43.8642 z" /></g></g><g
       id="g308"><g
         clip-path="url(#clipPath314)"
         id="g310"><path
           id="path316"
           style="fill:#0000ff;fill-opacity:0.4;fill-rule:nonzero;stroke:none"
           d="m 184.2979,359.74375 h 43.8642 v 21.91837 h -43.8642 z" /></g></g><g
       id="g318"><g
         clip-path="url(#clipPath324)"
         id="g320"><path
           id="path326"
           style="fill:#0000ff;fill-opacity:0.4;fill-rule:nonzero;stroke:none"
           d="m 228.1621,359.74375 h 43.8642 v 51.14286 h -43.8642 z" /></g></g><g
       id="g328"><path
         id="path330"
         style="fill:#000000;fill-opacity:1;fill-rule:nonzero;stroke:#000000;stroke-width:0.80000001;stroke-linecap:butt;stroke-linejoin:round;stroke-miterlimit:10;stroke-dasharray:none;stroke-opacity:1"
         d="m 72.487102,359.74375 v -3.5" /><path
         id="path332"
         style="fill:#000000;fill-opacity:1;fill-rule:nonzero;stroke:#000000;stroke-width:0.80000001;stroke-linecap:butt;stroke-linejoin:round;stroke-miterlimit:10;stroke-dasharray:none;stroke-opacity:1"
         d="m 125.4973,359.74375 v -3.5" /><path
         id="path334"
         style="fill:#000000;fill-opacity:1;fill-rule:nonzero;stroke:#000000;stroke-width:0.80000001;stroke-linecap:butt;stroke-linejoin:round;stroke-miterlimit:10;stroke-dasharray:none;stroke-opacity:1"
         d="m 178.50749,359.74375 v -3.5" /><path
         id="path336"
         style="fill:#000000;fill-opacity:1;fill-rule:nonzero;stroke:#000000;stroke-width:0.80000001;stroke-linecap:butt;stroke-linejoin:round;stroke-miterlimit:10;stroke-dasharray:none;stroke-opacity:1"
         d="m 231.51768,359.74375 v -3.5" /><path
         id="path338"
         style="fill:#000000;fill-opacity:1;fill-rule:nonzero;stroke:#000000;stroke-width:0.80000001;stroke-linecap:butt;stroke-linejoin:round;stroke-miterlimit:10;stroke-dasharray:none;stroke-opacity:1"
         d="m 284.52787,359.74375 v -3.5" /><path
         id="path340"
         style="fill:#000000;fill-opacity:1;fill-rule:nonzero;stroke:#000000;stroke-width:0.80000001;stroke-linecap:butt;stroke-linejoin:round;stroke-miterlimit:10;stroke-dasharray:none;stroke-opacity:1"
         d="m 337.53807,359.74375 v -3.5" /></g><g
       id="g342"><g
         clip-path="url(#clipPath348)"
         id="g344"><path
           id="path350"
           style="fill:none;stroke:#0000ff;stroke-width:1.5;stroke-linecap:square;stroke-linejoin:round;stroke-miterlimit:10;stroke-dasharray:none;stroke-opacity:1"
           d="m 67.21125,359.82518 2.80846,0.0297 2.808459,0.0388 2.80846,0.0499 2.808459,0.0633 2.80846,0.0793 2.80846,0.098 2.808459,0.11941 2.80846,0.14351 2.808459,0.17009 2.80846,0.19879 2.80846,0.2291 2.808464,0.26036 2.80846,0.29177 2.80845,0.32241 2.80846,0.35139 2.80846,0.37776 2.80846,0.40073 2.80846,0.41966 2.80846,0.43418 2.80846,0.44419 2.80846,0.44996 2.80846,0.45212 2.80846,0.4516 2.80846,0.44963 2.80846,0.44759 2.80846,0.44699 2.80846,0.44922 2.80846,0.45554 2.80846,0.46687 2.80846,0.48372 2.80846,0.50615 2.80846,0.53367 2.80846,0.56531 2.80846,0.59969 2.80846,0.63501 2.80845,0.66936 2.80846,0.70071 2.80846,0.72718 2.80846,0.74714 2.80846,0.75942 2.80846,0.76336 2.80846,0.759 2.80846,0.74697 2.80846,0.72863 2.80846,0.70592 2.80846,0.68128 2.80846,0.65747 2.80846,0.63743 2.80846,0.62391 2.80846,0.61939 2.80846,0.62569 2.80846,0.64384 2.80846,0.67375 2.80846,0.71419 2.80846,0.76268 2.80846,0.81545 2.80846,0.86767 2.80846,0.9136 2.80846,0.94694 2.80846,0.96121 2.80845,0.95025 2.80846,0.90866 2.80846,0.83227 2.80846,0.71861 2.80846,0.5671 2.80846,0.37937 2.80846,0.1592 2.80846,-0.0875 2.80846,-0.35325 2.80846,-0.62891 2.80846,-0.90472 2.80846,-1.17061 2.80846,-1.41692 2.80846,-1.63496 2.80846,-1.81744 2.80846,-1.95899 2.80846,-2.0563 2.80846,-2.10823 2.80846,-2.11576 2.80846,-2.0818 2.80846,-2.01082 2.80846,-1.90851 2.80846,-1.78132 2.80846,-1.63602 2.80846,-1.47933 2.80845,-1.31752 2.80846,-1.15617 2.80846,-1 2.80846,-0.85271 2.80846,-0.71701 2.80846,-0.59465 2.80846,-0.4865 2.80846,-0.39269 2.80846,-0.31278 2.80846,-0.24585 2.80846,-0.19073 2.80846,-0.14606 2.80846,-0.11041 2.80846,-0.0824" /></g></g><g
       id="g352"><path
         id="path354"
         style="fill:none;stroke:#000000;stroke-width:0.80000001;stroke-linecap:square;stroke-linejoin:miter;stroke-miterlimit:10;stroke-dasharray:none;stroke-opacity:1"
         d="M 53.309375,359.74375 H 359.15063" /><path
         id="path356"
         style="fill:#ffffff;fill-opacity:1;fill-rule:nonzero;stroke:none"
         d="m 369.69687,37.54375 h 52.73125 v 311.46 h -52.73125 z" /></g><g
       id="g358"><g
         clip-path="url(#clipPath364)"
         id="g360"><path
           id="path366"
           style="fill:#0000ff;fill-opacity:0.4;fill-rule:nonzero;stroke:none"
           d="m 369.69687,143.01269 h 33.48016 v 15.67535 h -33.48016 z" /></g></g><g
       id="g368"><g
         clip-path="url(#clipPath374)"
         id="g370"><path
           id="path376"
           style="fill:#0000ff;fill-opacity:0.4;fill-rule:nonzero;stroke:none"
           d="m 369.69687,158.68804 h 50.22024 v 15.67534 h -50.22024 z" /></g></g><g
       id="g378"><g
         clip-path="url(#clipPath384)"
         id="g380"><path
           id="path386"
           style="fill:#0000ff;fill-opacity:0.4;fill-rule:nonzero;stroke:none"
           d="m 369.69687,174.36338 h 8.37004 v 15.67534 h -8.37004 z" /></g></g><g
       id="g388"><g
         clip-path="url(#clipPath394)"
         id="g390"><path
           id="path396"
           style="fill:#0000ff;fill-opacity:0.4;fill-rule:nonzero;stroke:none"
           d="m 369.69687,190.03872 v 0 15.67535 0 z" /></g></g><g
       id="g398"><g
         clip-path="url(#clipPath404)"
         id="g400"><path
           id="path406"
           style="fill:#0000ff;fill-opacity:0.4;fill-rule:nonzero;stroke:none"
           d="m 369.69687,205.71407 v 0 15.67534 0 z" /></g></g><g
       id="g408"><g
         clip-path="url(#clipPath414)"
         id="g410"><path
           id="path416"
           style="fill:#0000ff;fill-opacity:0.4;fill-rule:nonzero;stroke:none"
           d="m 369.69687,221.38941 v 0 15.67535 0 z" /></g></g><g
       id="g418"><g
         clip-path="url(#clipPath424)"
         id="g420"><path
           id="path426"
           style="fill:#0000ff;fill-opacity:0.4;fill-rule:nonzero;stroke:none"
           d="m 369.69687,237.06476 v 0 15.67534 0 z" /></g></g><g
       id="g428"><g
         clip-path="url(#clipPath434)"
         id="g430"><path
           id="path436"
           style="fill:#0000ff;fill-opacity:0.4;fill-rule:nonzero;stroke:none"
           d="m 369.69687,252.7401 h 8.37004 v 15.67534 h -8.37004 z" /></g></g><g
       id="g438"><path
         id="path440"
         style="fill:#000000;fill-opacity:1;fill-rule:nonzero;stroke:#000000;stroke-width:0.80000001;stroke-linecap:butt;stroke-linejoin:round;stroke-miterlimit:10;stroke-dasharray:none;stroke-opacity:1"
         d="m 369.69687,66.482102 h -3.5" /><path
         id="path442"
         style="fill:#000000;fill-opacity:1;fill-rule:nonzero;stroke:#000000;stroke-width:0.80000001;stroke-linecap:butt;stroke-linejoin:round;stroke-miterlimit:10;stroke-dasharray:none;stroke-opacity:1"
         d="m 369.69687,107.79416 h -3.5" /><path
         id="path444"
         style="fill:#000000;fill-opacity:1;fill-rule:nonzero;stroke:#000000;stroke-width:0.80000001;stroke-linecap:butt;stroke-linejoin:round;stroke-miterlimit:10;stroke-dasharray:none;stroke-opacity:1"
         d="m 369.69687,149.10622 h -3.5" /><path
         id="path446"
         style="fill:#000000;fill-opacity:1;fill-rule:nonzero;stroke:#000000;stroke-width:0.80000001;stroke-linecap:butt;stroke-linejoin:round;stroke-miterlimit:10;stroke-dasharray:none;stroke-opacity:1"
         d="m 369.69687,190.41828 h -3.5" /><path
         id="path448"
         style="fill:#000000;fill-opacity:1;fill-rule:nonzero;stroke:#000000;stroke-width:0.80000001;stroke-linecap:butt;stroke-linejoin:round;stroke-miterlimit:10;stroke-dasharray:none;stroke-opacity:1"
         d="m 369.69687,231.73034 h -3.5" /><path
         id="path450"
         style="fill:#000000;fill-opacity:1;fill-rule:nonzero;stroke:#000000;stroke-width:0.80000001;stroke-linecap:butt;stroke-linejoin:round;stroke-miterlimit:10;stroke-dasharray:none;stroke-opacity:1"
         d="m 369.69687,273.04239 h -3.5" /><path
         id="path452"
         style="fill:#000000;fill-opacity:1;fill-rule:nonzero;stroke:#000000;stroke-width:0.80000001;stroke-linecap:butt;stroke-linejoin:round;stroke-miterlimit:10;stroke-dasharray:none;stroke-opacity:1"
         d="m 369.69687,314.35445 h -3.5" /></g><g
       id="g454"><g
         clip-path="url(#clipPath460)"
         id="g456"><path
           id="path462"
           style="fill:none;stroke:#0000ff;stroke-width:1.5;stroke-linecap:square;stroke-linejoin:round;stroke-miterlimit:10;stroke-dasharray:none;stroke-opacity:1"
           d="m 369.80011,85.411967 0.0448,2.430346 0.0613,2.430345 0.0826,2.430346 0.10975,2.430345 0.14362,2.430345 0.18517,2.430346 0.23521,2.43035 0.29437,2.43034 0.36299,2.43035 0.44104,2.43034 0.52803,2.43035 0.62298,2.43034 0.7243,2.43035 0.8299,2.43034 0.93707,2.43035 1.04271,2.43035 1.14329,2.43034 1.23509,2.43034 1.31423,2.43035 1.37699,2.43035 1.41975,2.43034 1.43937,2.43035 1.43315,2.43034 1.39901,2.43035 1.33563,2.43034 1.24245,2.43035 1.11984,2.43034 0.96907,2.43035 0.7924,2.43035 0.59309,2.43034 0.3754,2.43035 0.14444,2.43034 -0.0939,2.43035 -0.333,2.43034 -0.56614,2.43035 -0.7864,2.43034 -0.98725,2.43035 -1.16279,2.43034 -1.30817,2.43035 -1.41979,2.43035 -1.49558,2.43034 -1.53501,2.43035 -1.53916,2.43034 -1.51057,2.43035 -1.45296,2.43034 -1.37102,2.43035 -1.27,2.43034 -1.1554,2.43035 -1.03253,2.43034 -0.90637,2.43035 -0.78117,2.43035 -0.66044,2.43034 -0.54674,2.43035 -0.44186,2.43034 -0.34668,2.43035 -0.2615,2.43034 -0.18599,2.43035 -0.11955,2.43034 -0.0613,2.43035 -0.0104,2.43034 0.034,2.43035 0.0724,2.43035 0.10535,2.43034 0.13285,2.43035 0.15486,2.43034 0.17106,2.43035 0.18108,2.43034 0.18451,2.43035 0.18105,2.43034 0.17061,2.43035 0.15331,2.43034 0.12965,2.43035 0.10043,2.43035 0.0668,2.43034 0.0302,2.43035 -0.008,2.43034 -0.0455,2.43035 -0.0813,2.43034 -0.11363,2.43035 -0.14124,2.43034 -0.1632,2.43035 -0.17896,2.43034 -0.18837,2.43035 -0.19161,2.43035 -0.18922,2.43034 -0.18196,2.43035 -0.17078,2.43034 -0.15668,2.43035 -0.1407,2.43034 -0.12381,2.43035 -0.10682,2.43034 -0.0904,2.43035 -0.0751,2.43034 -0.0613,2.43035 -0.0492,2.43035 -0.0387,2.43034 -0.03,2.43035 -0.0229,2.43034 -0.0171,2.43035" /></g></g><g
       id="g464"><path
         id="path466"
         style="fill:none;stroke:#000000;stroke-width:0.80000001;stroke-linecap:square;stroke-linejoin:miter;stroke-miterlimit:10;stroke-dasharray:none;stroke-opacity:1"
         d="m 369.69687,37.54375 v 311.46" /><text
         id="text470"
         style="font-variant:normal;font-weight:bold;font-size:12px;font-family:'DejaVu Sans';-inkscape-font-specification:DejaVuSans-Bold;writing-mode:lr-tb;fill:#000000;fill-opacity:1;fill-rule:nonzero;stroke:none"
         transform="matrix(1,0,0,-1,47.392187,422.93875)"><tspan
           id="tspan468"
           y="0"
           x="0 11.94 20.076 28.667999 32.784 40.883999 49.428001 53.604 59.52 67.655998 75.480003 83.615997 92.160004 100.704 108.84 113.016 120.84 127.98 132.15601 139.272 147.37199 151.48801 159.73199 165.64799 169.76401 177.89999 182.076 190.668 198.804 207.34801 214.48801 218.604 224.34 232.164 236.34 244.44 250.17599 254.35201 262.452 266.62799 272.54401 280.67999 289.272 293.388 301.63199 310.17599 314.35199 318.46799 326.604 334.42801 342.564">Median revenue vs calorie density at a region level</tspan></text>
</g></g></svg>