<?xml version="1.0" encoding="UTF-8" standalone="no"?>
<svg
   xmlns:dc="http://purl.org/dc/elements/1.1/"
   xmlns:cc="http://creativecommons.org/ns#"
   xmlns:rdf="http://www.w3.org/1999/02/22-rdf-syntax-ns#"
   xmlns:svg="http://www.w3.org/2000/svg"
   xmlns="http://www.w3.org/2000/svg"
   viewBox="0 0 960 672"
   height="672"
   width="960"
   xml:space="preserve"
   id="svg2"
   version="1.1"><metadata
     id="metadata8"><rdf:RDF><cc:Work
         rdf:about=""><dc:format>image/svg+xml</dc:format><dc:type
           rdf:resource="http://purl.org/dc/dcmitype/StillImage" /></cc:Work></rdf:RDF></metadata><defs
     id="defs6"><clipPath
       id="clipPath22"
       clipPathUnits="userSpaceOnUse"><path
         id="path20"
         d="M 90,63 H 648 V 443.52 H 90 Z" /></clipPath><clipPath
       id="clipPath32"
       clipPathUnits="userSpaceOnUse"><path
         id="path30"
         d="M 90,63 H 648 V 443.52 H 90 Z" /></clipPath><clipPath
       id="clipPath42"
       clipPathUnits="userSpaceOnUse"><path
         id="path40"
         d="M 90,63 H 648 V 443.52 H 90 Z" /></clipPath><clipPath
       id="clipPath52"
       clipPathUnits="userSpaceOnUse"><path
         id="path50"
         d="M 90,63 H 648 V 443.52 H 90 Z" /></clipPath><clipPath
       id="clipPath62"
       clipPathUnits="userSpaceOnUse"><path
         id="path60"
         d="M 90,63 H 648 V 443.52 H 90 Z" /></clipPath><clipPath
       id="clipPath72"
       clipPathUnits="userSpaceOnUse"><path
         id="path70"
         d="M 90,63 H 648 V 443.52 H 90 Z" /></clipPath><clipPath
       id="clipPath82"
       clipPathUnits="userSpaceOnUse"><path
         id="path80"
         d="M 90,63 H 648 V 443.52 H 90 Z" /></clipPath><clipPath
       id="clipPath92"
       clipPathUnits="userSpaceOnUse"><path
         id="path90"
         d="M 90,63 H 648 V 443.52 H 90 Z" /></clipPath><clipPath
       id="clipPath102"
       clipPathUnits="userSpaceOnUse"><path
         id="path100"
         d="M 90,63 H 648 V 443.52 H 90 Z" /></clipPath><clipPath
       id="clipPath112"
       clipPathUnits="userSpaceOnUse"><path
         id="path110"
         d="M 90,63 H 648 V 443.52 H 90 Z" /></clipPath><clipPath
       id="clipPath122"
       clipPathUnits="userSpaceOnUse"><path
         id="path120"
         d="M 90,63 H 648 V 443.52 H 90 Z" /></clipPath><clipPath
       id="clipPath132"
       clipPathUnits="userSpaceOnUse"><path
         id="path130"
         d="M 90,63 H 648 V 443.52 H 90 Z" /></clipPath><clipPath
       id="clipPath142"
       clipPathUnits="userSpaceOnUse"><path
         id="path140"
         d="M 90,63 H 648 V 443.52 H 90 Z" /></clipPath><clipPath
       id="clipPath152"
       clipPathUnits="userSpaceOnUse"><path
         id="path150"
         d="M 90,63 H 648 V 443.52 H 90 Z" /></clipPath><clipPath
       id="clipPath162"
       clipPathUnits="userSpaceOnUse"><path
         id="path160"
         d="M 90,63 H 648 V 443.52 H 90 Z" /></clipPath><clipPath
       id="clipPath172"
       clipPathUnits="userSpaceOnUse"><path
         id="path170"
         d="M 90,63 H 648 V 443.52 H 90 Z" /></clipPath><clipPath
       id="clipPath182"
       clipPathUnits="userSpaceOnUse"><path
         id="path180"
         d="M 90,63 H 648 V 443.52 H 90 Z" /></clipPath><clipPath
       id="clipPath192"
       clipPathUnits="userSpaceOnUse"><path
         id="path190"
         d="M 90,63 H 648 V 443.52 H 90 Z" /></clipPath><clipPath
       id="clipPath202"
       clipPathUnits="userSpaceOnUse"><path
         id="path200"
         d="M 90,63 H 648 V 443.52 H 90 Z" /></clipPath><clipPath
       id="clipPath212"
       clipPathUnits="userSpaceOnUse"><path
         id="path210"
         d="M 90,63 H 648 V 443.52 H 90 Z" /></clipPath><clipPath
       id="clipPath222"
       clipPathUnits="userSpaceOnUse"><path
         id="path220"
         d="M 90,63 H 648 V 443.52 H 90 Z" /></clipPath><clipPath
       id="clipPath232"
       clipPathUnits="userSpaceOnUse"><path
         id="path230"
         d="M 90,63 H 648 V 443.52 H 90 Z" /></clipPath><clipPath
       id="clipPath242"
       clipPathUnits="userSpaceOnUse"><path
         id="path240"
         d="M 90,63 H 648 V 443.52 H 90 Z" /></clipPath><clipPath
       id="clipPath252"
       clipPathUnits="userSpaceOnUse"><path
         id="path250"
         d="M 90,63 H 648 V 443.52 H 90 Z" /></clipPath><clipPath
       id="clipPath262"
       clipPathUnits="userSpaceOnUse"><path
         id="path260"
         d="M 90,63 H 648 V 443.52 H 90 Z" /></clipPath><clipPath
       id="clipPath272"
       clipPathUnits="userSpaceOnUse"><path
         id="path270"
         d="M 90,63 H 648 V 443.52 H 90 Z" /></clipPath><clipPath
       id="clipPath282"
       clipPathUnits="userSpaceOnUse"><path
         id="path280"
         d="M 90,63 H 648 V 443.52 H 90 Z" /></clipPath><clipPath
       id="clipPath292"
       clipPathUnits="userSpaceOnUse"><path
         id="path290"
         d="M 90,63 H 648 V 443.52 H 90 Z" /></clipPath><clipPath
       id="clipPath302"
       clipPathUnits="userSpaceOnUse"><path
         id="path300"
         d="M 90,63 H 648 V 443.52 H 90 Z" /></clipPath><clipPath
       id="clipPath312"
       clipPathUnits="userSpaceOnUse"><path
         id="path310"
         d="M 90,63 H 648 V 443.52 H 90 Z" /></clipPath><clipPath
       id="clipPath322"
       clipPathUnits="userSpaceOnUse"><path
         id="path320"
         d="M 90,63 H 648 V 443.52 H 90 Z" /></clipPath><clipPath
       id="clipPath332"
       clipPathUnits="userSpaceOnUse"><path
         id="path330"
         d="M 90,63 H 648 V 443.52 H 90 Z" /></clipPath><clipPath
       id="clipPath342"
       clipPathUnits="userSpaceOnUse"><path
         id="path340"
         d="M 90,63 H 648 V 443.52 H 90 Z" /></clipPath><clipPath
       id="clipPath352"
       clipPathUnits="userSpaceOnUse"><path
         id="path350"
         d="M 90,63 H 648 V 443.52 H 90 Z" /></clipPath><clipPath
       id="clipPath362"
       clipPathUnits="userSpaceOnUse"><path
         id="path360"
         d="M 90,63 H 648 V 443.52 H 90 Z" /></clipPath><clipPath
       id="clipPath372"
       clipPathUnits="userSpaceOnUse"><path
         id="path370"
         d="M 90,63 H 648 V 443.52 H 90 Z" /></clipPath><clipPath
       id="clipPath382"
       clipPathUnits="userSpaceOnUse"><path
         id="path380"
         d="M 90,63 H 648 V 443.52 H 90 Z" /></clipPath><clipPath
       id="clipPath392"
       clipPathUnits="userSpaceOnUse"><path
         id="path390"
         d="M 90,63 H 648 V 443.52 H 90 Z" /></clipPath><clipPath
       id="clipPath402"
       clipPathUnits="userSpaceOnUse"><path
         id="path400"
         d="M 90,63 H 648 V 443.52 H 90 Z" /></clipPath><clipPath
       id="clipPath412"
       clipPathUnits="userSpaceOnUse"><path
         id="path410"
         d="M 90,63 H 648 V 443.52 H 90 Z" /></clipPath><clipPath
       id="clipPath422"
       clipPathUnits="userSpaceOnUse"><path
         id="path420"
         d="M 90,63 H 648 V 443.52 H 90 Z" /></clipPath><clipPath
       id="clipPath432"
       clipPathUnits="userSpaceOnUse"><path
         id="path430"
         d="M 90,63 H 648 V 443.52 H 90 Z" /></clipPath><clipPath
       id="clipPath442"
       clipPathUnits="userSpaceOnUse"><path
         id="path440"
         d="M 90,63 H 648 V 443.52 H 90 Z" /></clipPath><clipPath
       id="clipPath452"
       clipPathUnits="userSpaceOnUse"><path
         id="path450"
         d="M 90,63 H 648 V 443.52 H 90 Z" /></clipPath><clipPath
       id="clipPath462"
       clipPathUnits="userSpaceOnUse"><path
         id="path460"
         d="M 90,63 H 648 V 443.52 H 90 Z" /></clipPath><clipPath
       id="clipPath472"
       clipPathUnits="userSpaceOnUse"><path
         id="path470"
         d="M 90,63 H 648 V 443.52 H 90 Z" /></clipPath><clipPath
       id="clipPath482"
       clipPathUnits="userSpaceOnUse"><path
         id="path480"
         d="M 90,63 H 648 V 443.52 H 90 Z" /></clipPath><clipPath
       id="clipPath492"
       clipPathUnits="userSpaceOnUse"><path
         id="path490"
         d="M 90,63 H 648 V 443.52 H 90 Z" /></clipPath><clipPath
       id="clipPath502"
       clipPathUnits="userSpaceOnUse"><path
         id="path500"
         d="M 90,63 H 648 V 443.52 H 90 Z" /></clipPath><clipPath
       id="clipPath512"
       clipPathUnits="userSpaceOnUse"><path
         id="path510"
         d="M 90,63 H 648 V 443.52 H 90 Z" /></clipPath><clipPath
       id="clipPath580"
       clipPathUnits="userSpaceOnUse"><path
         id="path578"
         d="M -1021,-463 H 1794 V 1233 H -1021 Z" /></clipPath><clipPath
       id="clipPath648"
       clipPathUnits="userSpaceOnUse"><path
         id="path646"
         d="M 90,63 H 648 V 443.52 H 90 Z" /></clipPath></defs><g
     transform="matrix(1.3333333,0,0,-1.3333333,0,672)"
     id="g10"><path
       id="path12"
       style="fill:#ffffff;fill-opacity:1;fill-rule:nonzero;stroke:none"
       d="M 0,0 H 720 V 504 H 0 Z" /><path
       id="path14"
       style="fill:#ffffff;fill-opacity:1;fill-rule:nonzero;stroke:none"
       d="M 90,63 H 648 V 443.52 H 90 Z" /><g
       id="g16"><g
         clip-path="url(#clipPath22)"
         id="g18"><path
           id="path24"
           style="fill:#1f77b4;fill-opacity:0.4;fill-rule:nonzero;stroke:none"
           d="m 127.15913,63 h 9.67364 v 0.142062 h -9.67364 z" /></g></g><g
       id="g26"><g
         clip-path="url(#clipPath32)"
         id="g28"><path
           id="path34"
           style="fill:#1f77b4;fill-opacity:0.4;fill-rule:nonzero;stroke:none"
           d="m 136.83277,63 h 9.67363 v 0.284124 h -9.67363 z" /></g></g><g
       id="g36"><g
         clip-path="url(#clipPath42)"
         id="g38"><path
           id="path44"
           style="fill:#1f77b4;fill-opacity:0.4;fill-rule:nonzero;stroke:none"
           d="m 146.5064,63 h 9.67364 v 11.0098 h -9.67364 z" /></g></g><g
       id="g46"><g
         clip-path="url(#clipPath52)"
         id="g48"><path
           id="path54"
           style="fill:#1f77b4;fill-opacity:0.4;fill-rule:nonzero;stroke:none"
           d="m 156.18004,63 h 9.67363 v 6.818973 h -9.67363 z" /></g></g><g
       id="g56"><g
         clip-path="url(#clipPath62)"
         id="g58"><path
           id="path64"
           style="fill:#1f77b4;fill-opacity:0.4;fill-rule:nonzero;stroke:none"
           d="m 165.85367,63 h 9.67364 v 1.065465 h -9.67364 z" /></g></g><g
       id="g66"><g
         clip-path="url(#clipPath72)"
         id="g68"><path
           id="path74"
           style="fill:#1f77b4;fill-opacity:0.4;fill-rule:nonzero;stroke:none"
           d="m 175.52731,63 h 9.67363 v 1.988867 h -9.67363 z" /></g></g><g
       id="g76"><g
         clip-path="url(#clipPath82)"
         id="g78"><path
           id="path84"
           style="fill:#1f77b4;fill-opacity:0.4;fill-rule:nonzero;stroke:none"
           d="m 185.20094,63 h 9.67364 v 17.757742 h -9.67364 z" /></g></g><g
       id="g86"><g
         clip-path="url(#clipPath92)"
         id="g88"><path
           id="path94"
           style="fill:#1f77b4;fill-opacity:0.4;fill-rule:nonzero;stroke:none"
           d="m 194.87458,63 h 9.67363 v 76.57138 h -9.67363 z" /></g></g><g
       id="g96"><g
         clip-path="url(#clipPath102)"
         id="g98"><path
           id="path104"
           style="fill:#1f77b4;fill-opacity:0.4;fill-rule:nonzero;stroke:none"
           d="m 204.54821,63 h 9.67364 v 93.90294 h -9.67364 z" /></g></g><g
       id="g106"><g
         clip-path="url(#clipPath112)"
         id="g108"><path
           id="path114"
           style="fill:#1f77b4;fill-opacity:0.4;fill-rule:nonzero;stroke:none"
           d="m 214.22185,63 h 9.67363 v 169.62195 h -9.67363 z" /></g></g><g
       id="g116"><g
         clip-path="url(#clipPath122)"
         id="g118"><path
           id="path124"
           style="fill:#1f77b4;fill-opacity:0.4;fill-rule:nonzero;stroke:none"
           d="m 223.89548,63 h 9.67364 v 247.96911 h -9.67364 z" /></g></g><g
       id="g126"><g
         clip-path="url(#clipPath132)"
         id="g128"><path
           id="path134"
           style="fill:#1f77b4;fill-opacity:0.4;fill-rule:nonzero;stroke:none"
           d="m 233.56912,63 h 9.67363 v 298.96934 h -9.67363 z" /></g></g><g
       id="g136"><g
         clip-path="url(#clipPath142)"
         id="g138"><path
           id="path144"
           style="fill:#1f77b4;fill-opacity:0.4;fill-rule:nonzero;stroke:none"
           d="m 243.24275,63 h 9.67363 v 331.92771 h -9.67363 z" /></g></g><g
       id="g146"><g
         clip-path="url(#clipPath152)"
         id="g148"><path
           id="path154"
           style="fill:#1f77b4;fill-opacity:0.4;fill-rule:nonzero;stroke:none"
           d="m 252.91638,63 h 9.67364 v 362.4 h -9.67364 z" /></g></g><g
       id="g156"><g
         clip-path="url(#clipPath162)"
         id="g158"><path
           id="path164"
           style="fill:#1f77b4;fill-opacity:0.4;fill-rule:nonzero;stroke:none"
           d="m 262.59002,63 h 9.67363 v 217.99404 h -9.67363 z" /></g></g><g
       id="g166"><g
         clip-path="url(#clipPath172)"
         id="g168"><path
           id="path174"
           style="fill:#1f77b4;fill-opacity:0.4;fill-rule:nonzero;stroke:none"
           d="m 272.26365,63 h 9.67364 v 154.35029 h -9.67364 z" /></g></g><g
       id="g176"><g
         clip-path="url(#clipPath182)"
         id="g178"><path
           id="path184"
           style="fill:#1f77b4;fill-opacity:0.4;fill-rule:nonzero;stroke:none"
           d="m 281.93729,63 h 9.67363 v 112.22893 h -9.67363 z" /></g></g><g
       id="g186"><g
         clip-path="url(#clipPath192)"
         id="g188"><path
           id="path194"
           style="fill:#1f77b4;fill-opacity:0.4;fill-rule:nonzero;stroke:none"
           d="m 291.61092,63 h 9.67364 v 84.95304 h -9.67364 z" /></g></g><g
       id="g196"><g
         clip-path="url(#clipPath202)"
         id="g198"><path
           id="path204"
           style="fill:#1f77b4;fill-opacity:0.4;fill-rule:nonzero;stroke:none"
           d="m 301.28456,63 h 9.67363 v 87.65221 h -9.67363 z" /></g></g><g
       id="g206"><g
         clip-path="url(#clipPath212)"
         id="g208"><path
           id="path214"
           style="fill:#1f77b4;fill-opacity:0.4;fill-rule:nonzero;stroke:none"
           d="m 310.95819,63 h 9.67364 v 93.83191 h -9.67364 z" /></g></g><g
       id="g216"><g
         clip-path="url(#clipPath222)"
         id="g218"><path
           id="path224"
           style="fill:#1f77b4;fill-opacity:0.4;fill-rule:nonzero;stroke:none"
           d="m 320.63183,63 h 9.67363 v 15.697844 h -9.67363 z" /></g></g><g
       id="g226"><g
         clip-path="url(#clipPath232)"
         id="g228"><path
           id="path234"
           style="fill:#1f77b4;fill-opacity:0.4;fill-rule:nonzero;stroke:none"
           d="m 330.30546,63 h 9.67364 v 21.664445 h -9.67364 z" /></g></g><g
       id="g236"><g
         clip-path="url(#clipPath242)"
         id="g238"><path
           id="path244"
           style="fill:#1f77b4;fill-opacity:0.4;fill-rule:nonzero;stroke:none"
           d="m 339.9791,63 h 9.67363 v 3.977734 h -9.67363 z" /></g></g><g
       id="g246"><g
         clip-path="url(#clipPath252)"
         id="g248"><path
           id="path254"
           style="fill:#1f77b4;fill-opacity:0.4;fill-rule:nonzero;stroke:none"
           d="m 349.65273,63 h 9.67363 v 6.392787 h -9.67363 z" /></g></g><g
       id="g256"><g
         clip-path="url(#clipPath262)"
         id="g258"><path
           id="path264"
           style="fill:#1f77b4;fill-opacity:0.4;fill-rule:nonzero;stroke:none"
           d="M 359.32636,63 H 369 v 7.458252 h -9.67364 z" /></g></g><g
       id="g266"><g
         clip-path="url(#clipPath272)"
         id="g268"><path
           id="path274"
           style="fill:#1f77b4;fill-opacity:0.4;fill-rule:nonzero;stroke:none"
           d="m 369,63 h 9.67363 V 75.359388 H 369 Z" /></g></g><g
       id="g276"><g
         clip-path="url(#clipPath282)"
         id="g278"><path
           id="path284"
           style="fill:#1f77b4;fill-opacity:0.4;fill-rule:nonzero;stroke:none"
           d="m 378.67363,63 h 9.67364 v 0.07103 h -9.67364 z" /></g></g><g
       id="g286"><g
         clip-path="url(#clipPath292)"
         id="g288"><path
           id="path294"
           style="fill:#1f77b4;fill-opacity:0.4;fill-rule:nonzero;stroke:none"
           d="m 388.34727,63 h 9.67363 v 0.284124 h -9.67363 z" /></g></g><g
       id="g296"><g
         clip-path="url(#clipPath302)"
         id="g298"><path
           id="path304"
           style="fill:#1f77b4;fill-opacity:0.4;fill-rule:nonzero;stroke:none"
           d="m 398.0209,63 h 9.67364 v 1.49165 h -9.67364 z" /></g></g><g
       id="g306"><g
         clip-path="url(#clipPath312)"
         id="g308"><path
           id="path314"
           style="fill:#1f77b4;fill-opacity:0.4;fill-rule:nonzero;stroke:none"
           d="m 407.69454,63 h 9.67363 v 8.878871 h -9.67363 z" /></g></g><g
       id="g316"><g
         clip-path="url(#clipPath322)"
         id="g318"><path
           id="path324"
           style="fill:#1f77b4;fill-opacity:0.4;fill-rule:nonzero;stroke:none"
           d="m 417.36817,63 h 9.67364 v 5.540416 h -9.67364 z" /></g></g><g
       id="g326"><g
         clip-path="url(#clipPath332)"
         id="g328"><path
           id="path334"
           style="fill:#1f77b4;fill-opacity:0.4;fill-rule:nonzero;stroke:none"
           d="m 427.04181,63 h 9.67363 v 1.846805 h -9.67363 z" /></g></g><g
       id="g336"><g
         clip-path="url(#clipPath342)"
         id="g338"><path
           id="path344"
           style="fill:#1f77b4;fill-opacity:0.4;fill-rule:nonzero;stroke:none"
           d="m 436.71544,63 h 9.67364 v 0.426186 h -9.67364 z" /></g></g><g
       id="g346"><g
         clip-path="url(#clipPath352)"
         id="g348"><path
           id="path354"
           style="fill:#1f77b4;fill-opacity:0.4;fill-rule:nonzero;stroke:none"
           d="m 446.38908,63 h 9.67363 v 0.142062 h -9.67363 z" /></g></g><g
       id="g356"><g
         clip-path="url(#clipPath362)"
         id="g358"><path
           id="path364"
           style="fill:#1f77b4;fill-opacity:0.4;fill-rule:nonzero;stroke:none"
           d="m 456.06271,63 h 9.67364 v 0 z" /></g></g><g
       id="g366"><g
         clip-path="url(#clipPath372)"
         id="g368"><path
           id="path374"
           style="fill:#1f77b4;fill-opacity:0.4;fill-rule:nonzero;stroke:none"
           d="m 465.73635,63 h 9.67363 v 0 z" /></g></g><g
       id="g376"><g
         clip-path="url(#clipPath382)"
         id="g378"><path
           id="path384"
           style="fill:#1f77b4;fill-opacity:0.4;fill-rule:nonzero;stroke:none"
           d="m 475.40998,63 h 9.67363 v 0.142062 h -9.67363 z" /></g></g><g
       id="g386"><g
         clip-path="url(#clipPath392)"
         id="g388"><path
           id="path394"
           style="fill:#1f77b4;fill-opacity:0.4;fill-rule:nonzero;stroke:none"
           d="m 485.08361,63 h 9.67364 v 2.344022 h -9.67364 z" /></g></g><g
       id="g396"><g
         clip-path="url(#clipPath402)"
         id="g398"><path
           id="path404"
           style="fill:#1f77b4;fill-opacity:0.4;fill-rule:nonzero;stroke:none"
           d="m 494.75725,63 h 9.67363 v 6.392787 h -9.67363 z" /></g></g><g
       id="g406"><g
         clip-path="url(#clipPath412)"
         id="g408"><path
           id="path414"
           style="fill:#1f77b4;fill-opacity:0.4;fill-rule:nonzero;stroke:none"
           d="m 504.43088,63 h 9.67364 v 0 z" /></g></g><g
       id="g416"><g
         clip-path="url(#clipPath422)"
         id="g418"><path
           id="path424"
           style="fill:#1f77b4;fill-opacity:0.4;fill-rule:nonzero;stroke:none"
           d="m 514.10452,63 h 9.67363 v 0.568248 h -9.67363 z" /></g></g><g
       id="g426"><g
         clip-path="url(#clipPath432)"
         id="g428"><path
           id="path434"
           style="fill:#1f77b4;fill-opacity:0.4;fill-rule:nonzero;stroke:none"
           d="m 523.77815,63 h 9.67364 v 0 z" /></g></g><g
       id="g436"><g
         clip-path="url(#clipPath442)"
         id="g438"><path
           id="path444"
           style="fill:#1f77b4;fill-opacity:0.4;fill-rule:nonzero;stroke:none"
           d="m 533.45179,63 h 9.67363 v 0 z" /></g></g><g
       id="g446"><g
         clip-path="url(#clipPath452)"
         id="g448"><path
           id="path454"
           style="fill:#1f77b4;fill-opacity:0.4;fill-rule:nonzero;stroke:none"
           d="m 543.12542,63 h 9.67364 v 0 z" /></g></g><g
       id="g456"><g
         clip-path="url(#clipPath462)"
         id="g458"><path
           id="path464"
           style="fill:#1f77b4;fill-opacity:0.4;fill-rule:nonzero;stroke:none"
           d="m 552.79906,63 h 9.67363 v 0 z" /></g></g><g
       id="g466"><g
         clip-path="url(#clipPath472)"
         id="g468"><path
           id="path474"
           style="fill:#1f77b4;fill-opacity:0.4;fill-rule:nonzero;stroke:none"
           d="m 562.47269,63 h 9.67364 v 0 z" /></g></g><g
       id="g476"><g
         clip-path="url(#clipPath482)"
         id="g478"><path
           id="path484"
           style="fill:#1f77b4;fill-opacity:0.4;fill-rule:nonzero;stroke:none"
           d="m 572.14633,63 h 9.67363 v 0 z" /></g></g><g
       id="g486"><g
         clip-path="url(#clipPath492)"
         id="g488"><path
           id="path494"
           style="fill:#1f77b4;fill-opacity:0.4;fill-rule:nonzero;stroke:none"
           d="m 581.81996,63 h 9.67364 v 0 z" /></g></g><g
       id="g496"><g
         clip-path="url(#clipPath502)"
         id="g498"><path
           id="path504"
           style="fill:#1f77b4;fill-opacity:0.4;fill-rule:nonzero;stroke:none"
           d="m 591.4936,63 h 9.67363 v 0 z" /></g></g><g
       id="g506"><g
         clip-path="url(#clipPath512)"
         id="g508"><path
           id="path514"
           style="fill:#1f77b4;fill-opacity:0.4;fill-rule:nonzero;stroke:none"
           d="m 601.16723,63 h 9.67363 v 1.349588 h -9.67363 z" /></g></g><g
       id="g516"><path
         id="path518"
         style="fill:#000000;fill-opacity:1;fill-rule:nonzero;stroke:#000000;stroke-width:0.80000001;stroke-linecap:butt;stroke-linejoin:round;stroke-miterlimit:10;stroke-dasharray:none;stroke-opacity:1"
         d="M 113.28626,63 V 59.5" /><text
         id="text522"
         style="font-variant:normal;font-weight:normal;font-size:10px;font-family:'DejaVu Sans';-inkscape-font-specification:DejaVuSans;writing-mode:lr-tb;fill:#000000;fill-opacity:1;fill-rule:nonzero;stroke:none"
         transform="matrix(1,0,0,-1,97.38782,48.40625)"><tspan
           id="tspan520"
           y="0"
           x="0 6.3600001 12.72 19.08 25.440001">10000</tspan></text>
<path
         id="path524"
         style="fill:#000000;fill-opacity:1;fill-rule:nonzero;stroke:#000000;stroke-width:0.80000001;stroke-linecap:butt;stroke-linejoin:round;stroke-miterlimit:10;stroke-dasharray:none;stroke-opacity:1"
         d="M 182.57896,63 V 59.5" /><text
         id="text528"
         style="font-variant:normal;font-weight:normal;font-size:10px;font-family:'DejaVu Sans';-inkscape-font-specification:DejaVuSans;writing-mode:lr-tb;fill:#000000;fill-opacity:1;fill-rule:nonzero;stroke:none"
         transform="matrix(1,0,0,-1,166.68052,48.40625)"><tspan
           id="tspan526"
           y="0"
           x="0 6.3600001 12.72 19.08 25.440001">15000</tspan></text>
<path
         id="path530"
         style="fill:#000000;fill-opacity:1;fill-rule:nonzero;stroke:#000000;stroke-width:0.80000001;stroke-linecap:butt;stroke-linejoin:round;stroke-miterlimit:10;stroke-dasharray:none;stroke-opacity:1"
         d="M 251.87166,63 V 59.5" /><text
         id="text534"
         style="font-variant:normal;font-weight:normal;font-size:10px;font-family:'DejaVu Sans';-inkscape-font-specification:DejaVuSans;writing-mode:lr-tb;fill:#000000;fill-opacity:1;fill-rule:nonzero;stroke:none"
         transform="matrix(1,0,0,-1,235.97323,48.40625)"><tspan
           id="tspan532"
           y="0"
           x="0 6.3600001 12.72 19.08 25.440001">20000</tspan></text>
<path
         id="path536"
         style="fill:#000000;fill-opacity:1;fill-rule:nonzero;stroke:#000000;stroke-width:0.80000001;stroke-linecap:butt;stroke-linejoin:round;stroke-miterlimit:10;stroke-dasharray:none;stroke-opacity:1"
         d="M 321.16437,63 V 59.5" /><text
         id="text540"
         style="font-variant:normal;font-weight:normal;font-size:10px;font-family:'DejaVu Sans';-inkscape-font-specification:DejaVuSans;writing-mode:lr-tb;fill:#000000;fill-opacity:1;fill-rule:nonzero;stroke:none"
         transform="matrix(1,0,0,-1,305.26593,48.40625)"><tspan
           id="tspan538"
           y="0"
           x="0 6.3600001 12.72 19.08 25.440001">25000</tspan></text>
<path
         id="path542"
         style="fill:#000000;fill-opacity:1;fill-rule:nonzero;stroke:#000000;stroke-width:0.80000001;stroke-linecap:butt;stroke-linejoin:round;stroke-miterlimit:10;stroke-dasharray:none;stroke-opacity:1"
         d="M 390.45707,63 V 59.5" /><text
         id="text546"
         style="font-variant:normal;font-weight:normal;font-size:10px;font-family:'DejaVu Sans';-inkscape-font-specification:DejaVuSans;writing-mode:lr-tb;fill:#000000;fill-opacity:1;fill-rule:nonzero;stroke:none"
         transform="matrix(1,0,0,-1,374.55863,48.40625)"><tspan
           id="tspan544"
           y="0"
           x="0 6.3600001 12.72 19.08 25.440001">30000</tspan></text>
<path
         id="path548"
         style="fill:#000000;fill-opacity:1;fill-rule:nonzero;stroke:#000000;stroke-width:0.80000001;stroke-linecap:butt;stroke-linejoin:round;stroke-miterlimit:10;stroke-dasharray:none;stroke-opacity:1"
         d="M 459.74977,63 V 59.5" /><text
         id="text552"
         style="font-variant:normal;font-weight:normal;font-size:10px;font-family:'DejaVu Sans';-inkscape-font-specification:DejaVuSans;writing-mode:lr-tb;fill:#000000;fill-opacity:1;fill-rule:nonzero;stroke:none"
         transform="matrix(1,0,0,-1,443.85134,48.40625)"><tspan
           id="tspan550"
           y="0"
           x="0 6.3600001 12.72 19.08 25.440001">35000</tspan></text>
<path
         id="path554"
         style="fill:#000000;fill-opacity:1;fill-rule:nonzero;stroke:#000000;stroke-width:0.80000001;stroke-linecap:butt;stroke-linejoin:round;stroke-miterlimit:10;stroke-dasharray:none;stroke-opacity:1"
         d="M 529.04248,63 V 59.5" /><text
         id="text558"
         style="font-variant:normal;font-weight:normal;font-size:10px;font-family:'DejaVu Sans';-inkscape-font-specification:DejaVuSans;writing-mode:lr-tb;fill:#000000;fill-opacity:1;fill-rule:nonzero;stroke:none"
         transform="matrix(1,0,0,-1,513.14404,48.40625)"><tspan
           id="tspan556"
           y="0"
           x="0 6.3600001 12.72 19.08 25.440001">40000</tspan></text>
<path
         id="path560"
         style="fill:#000000;fill-opacity:1;fill-rule:nonzero;stroke:#000000;stroke-width:0.80000001;stroke-linecap:butt;stroke-linejoin:round;stroke-miterlimit:10;stroke-dasharray:none;stroke-opacity:1"
         d="M 598.33518,63 V 59.5" /><text
         id="text564"
         style="font-variant:normal;font-weight:normal;font-size:10px;font-family:'DejaVu Sans';-inkscape-font-specification:DejaVuSans;writing-mode:lr-tb;fill:#000000;fill-opacity:1;fill-rule:nonzero;stroke:none"
         transform="matrix(1,0,0,-1,582.43674,48.40625)"><tspan
           id="tspan562"
           y="0"
           x="0 6.3600001 12.72 19.08 25.440001">45000</tspan></text>
<g
         transform="translate(319.94531,34.734375)"
         id="g566"><text
           id="text570"
           style="font-variant:normal;font-weight:normal;font-size:10px;font-family:'DejaVu Sans';-inkscape-font-specification:DejaVuSans;writing-mode:lr-tb;fill:#000000;fill-opacity:1;fill-rule:nonzero;stroke:none"
           transform="scale(1,-1)"><tspan
             id="tspan568"
             y="0"
             x="0 8.6300001 14.78 21.129999 23.91 30.040001 36.380001 39.560001 43.669998 49.82 55.740002 61.889999 68.230003 74.57 80.720001 83.900002 94.155273">Median revenue ()</tspan></text>
<g
           transform="matrix(0.01,0,0,0.01,87.792969,0)"
           id="g572"><g
             id="g574"><g
               clip-path="url(#clipPath580)"
               id="g576"><path
                 id="path582"
                 style="fill:#000000;fill-opacity:1;fill-rule:nonzero;stroke:none"
                 d="M 570,673 V 569 c -30,34 -59,58 -86,73 -28,14 -58,22 -91,22 -52,0 -94,-17 -126,-49 -33,-33 -55,-80 -65,-140 H 484 L 457,415 H 194 c -1,-8 -1,-16 -1,-23 0,-8 0,-17 0,-28 0,-11 0,-20 0,-27 0,-8 0,-15 1,-23 H 412 L 385,254 H 202 c 10,-61 32,-108 65,-141 32,-33 74,-49 126,-49 33,0 63,7 91,22 27,14 56,39 86,73 V 56 C 540,32 511,15 481,4 451,-7 420,-13 389,-13 311,-13 248,10 198,57 148,103 116,169 103,254 H 0 l 27,60 h 68 c 0,7 -1,14 -1,22 0,8 0,17 0,28 0,11 0,20 0,28 0,8 1,15 1,23 H 0 l 27,60 h 76 c 13,84 45,149 95,196 50,47 114,71 191,71 32,0 63,-6 93,-17 30,-12 59,-29 88,-52" /></g></g></g></g><path
         id="path584"
         style="fill:#000000;fill-opacity:1;fill-rule:nonzero;stroke:#000000;stroke-width:0.80000001;stroke-linecap:butt;stroke-linejoin:round;stroke-miterlimit:10;stroke-dasharray:none;stroke-opacity:1"
         d="M 90,63 H 86.5" /><text
         id="text588"
         style="font-variant:normal;font-weight:normal;font-size:10px;font-family:'DejaVu Sans';-inkscape-font-specification:DejaVuSans;writing-mode:lr-tb;fill:#000000;fill-opacity:1;fill-rule:nonzero;stroke:none"
         transform="matrix(1,0,0,-1,35.296875,59.203125)"><tspan
           id="tspan586"
           y="0"
           x="0 6.3600001 9.54 15.9 22.26 28.620001 34.98 41.34">0.000000</tspan></text>
<path
         id="path590"
         style="fill:#000000;fill-opacity:1;fill-rule:nonzero;stroke:#000000;stroke-width:0.80000001;stroke-linecap:butt;stroke-linejoin:round;stroke-miterlimit:10;stroke-dasharray:none;stroke-opacity:1"
         d="M 90,106.07643 H 86.5" /><text
         id="text594"
         style="font-variant:normal;font-weight:normal;font-size:10px;font-family:'DejaVu Sans';-inkscape-font-specification:DejaVuSans;writing-mode:lr-tb;fill:#000000;fill-opacity:1;fill-rule:nonzero;stroke:none"
         transform="matrix(1,0,0,-1,35.296875,102.27956)"><tspan
           id="tspan592"
           y="0"
           x="0 6.3600001 9.54 15.9 22.26 28.620001 34.98 41.34">0.000025</tspan></text>
<path
         id="path596"
         style="fill:#000000;fill-opacity:1;fill-rule:nonzero;stroke:#000000;stroke-width:0.80000001;stroke-linecap:butt;stroke-linejoin:round;stroke-miterlimit:10;stroke-dasharray:none;stroke-opacity:1"
         d="M 90,149.15286 H 86.5" /><text
         id="text600"
         style="font-variant:normal;font-weight:normal;font-size:10px;font-family:'DejaVu Sans';-inkscape-font-specification:DejaVuSans;writing-mode:lr-tb;fill:#000000;fill-opacity:1;fill-rule:nonzero;stroke:none"
         transform="matrix(1,0,0,-1,35.296875,145.35599)"><tspan
           id="tspan598"
           y="0"
           x="0 6.3600001 9.54 15.9 22.26 28.620001 34.98 41.34">0.000050</tspan></text>
<path
         id="path602"
         style="fill:#000000;fill-opacity:1;fill-rule:nonzero;stroke:#000000;stroke-width:0.80000001;stroke-linecap:butt;stroke-linejoin:round;stroke-miterlimit:10;stroke-dasharray:none;stroke-opacity:1"
         d="M 90,192.2293 H 86.5" /><text
         id="text606"
         style="font-variant:normal;font-weight:normal;font-size:10px;font-family:'DejaVu Sans';-inkscape-font-specification:DejaVuSans;writing-mode:lr-tb;fill:#000000;fill-opacity:1;fill-rule:nonzero;stroke:none"
         transform="matrix(1,0,0,-1,35.296875,188.43242)"><tspan
           id="tspan604"
           y="0"
           x="0 6.3600001 9.54 15.9 22.26 28.620001 34.98 41.34">0.000075</tspan></text>
<path
         id="path608"
         style="fill:#000000;fill-opacity:1;fill-rule:nonzero;stroke:#000000;stroke-width:0.80000001;stroke-linecap:butt;stroke-linejoin:round;stroke-miterlimit:10;stroke-dasharray:none;stroke-opacity:1"
         d="M 90,235.30573 H 86.5" /><text
         id="text612"
         style="font-variant:normal;font-weight:normal;font-size:10px;font-family:'DejaVu Sans';-inkscape-font-specification:DejaVuSans;writing-mode:lr-tb;fill:#000000;fill-opacity:1;fill-rule:nonzero;stroke:none"
         transform="matrix(1,0,0,-1,35.296875,231.50885)"><tspan
           id="tspan610"
           y="0"
           x="0 6.3600001 9.54 15.9 22.26 28.620001 34.98 41.34">0.000100</tspan></text>
<path
         id="path614"
         style="fill:#000000;fill-opacity:1;fill-rule:nonzero;stroke:#000000;stroke-width:0.80000001;stroke-linecap:butt;stroke-linejoin:round;stroke-miterlimit:10;stroke-dasharray:none;stroke-opacity:1"
         d="M 90,278.38216 H 86.5" /><text
         id="text618"
         style="font-variant:normal;font-weight:normal;font-size:10px;font-family:'DejaVu Sans';-inkscape-font-specification:DejaVuSans;writing-mode:lr-tb;fill:#000000;fill-opacity:1;fill-rule:nonzero;stroke:none"
         transform="matrix(1,0,0,-1,35.296875,274.58529)"><tspan
           id="tspan616"
           y="0"
           x="0 6.3600001 9.54 15.9 22.26 28.620001 34.98 41.34">0.000125</tspan></text>
<path
         id="path620"
         style="fill:#000000;fill-opacity:1;fill-rule:nonzero;stroke:#000000;stroke-width:0.80000001;stroke-linecap:butt;stroke-linejoin:round;stroke-miterlimit:10;stroke-dasharray:none;stroke-opacity:1"
         d="M 90,321.45859 H 86.5" /><text
         id="text624"
         style="font-variant:normal;font-weight:normal;font-size:10px;font-family:'DejaVu Sans';-inkscape-font-specification:DejaVuSans;writing-mode:lr-tb;fill:#000000;fill-opacity:1;fill-rule:nonzero;stroke:none"
         transform="matrix(1,0,0,-1,35.296875,317.66172)"><tspan
           id="tspan622"
           y="0"
           x="0 6.3600001 9.54 15.9 22.26 28.620001 34.98 41.34">0.000150</tspan></text>
<path
         id="path626"
         style="fill:#000000;fill-opacity:1;fill-rule:nonzero;stroke:#000000;stroke-width:0.80000001;stroke-linecap:butt;stroke-linejoin:round;stroke-miterlimit:10;stroke-dasharray:none;stroke-opacity:1"
         d="M 90,364.53502 H 86.5" /><text
         id="text630"
         style="font-variant:normal;font-weight:normal;font-size:10px;font-family:'DejaVu Sans';-inkscape-font-specification:DejaVuSans;writing-mode:lr-tb;fill:#000000;fill-opacity:1;fill-rule:nonzero;stroke:none"
         transform="matrix(1,0,0,-1,35.296875,360.73815)"><tspan
           id="tspan628"
           y="0"
           x="0 6.3600001 9.54 15.9 22.26 28.620001 34.98 41.34">0.000175</tspan></text>
<path
         id="path632"
         style="fill:#000000;fill-opacity:1;fill-rule:nonzero;stroke:#000000;stroke-width:0.80000001;stroke-linecap:butt;stroke-linejoin:round;stroke-miterlimit:10;stroke-dasharray:none;stroke-opacity:1"
         d="M 90,407.61146 H 86.5" /><text
         id="text636"
         style="font-variant:normal;font-weight:normal;font-size:10px;font-family:'DejaVu Sans';-inkscape-font-specification:DejaVuSans;writing-mode:lr-tb;fill:#000000;fill-opacity:1;fill-rule:nonzero;stroke:none"
         transform="matrix(1,0,0,-1,35.296875,403.81458)"><tspan
           id="tspan634"
           y="0"
           x="0 6.3600001 9.54 15.9 22.26 28.620001 34.98 41.34">0.000200</tspan></text>
<text
         id="text640"
         style="font-variant:normal;font-weight:normal;font-size:10px;font-family:'DejaVu Sans';-inkscape-font-specification:DejaVuSans;writing-mode:lr-tb;fill:#000000;fill-opacity:1;fill-rule:nonzero;stroke:none"
         transform="matrix(0,1,1,0,29.21875,226.9475)"><tspan
           id="tspan638"
           y="0"
           x="0 5.75 9.8599997 16.01 22.360001 28.700001 34.849998 41.189999 46.689999">Frequency</tspan></text>
</g><g
       id="g642"><g
         clip-path="url(#clipPath648)"
         id="g644"><path
           id="path650"
           style="fill:none;stroke:#1f77b4;stroke-width:1.5;stroke-linecap:square;stroke-linejoin:round;stroke-miterlimit:10;stroke-dasharray:none;stroke-opacity:1"
           d="m 115.36364,63.000544 19.97136,0.106338 3.99428,0.193979 3.99427,0.682927 3.99427,3.198244 3.99428,4.93993 3.99427,0.366853 3.99427,-1.04921 3.99428,-0.666238 3.99427,-3.775734 3.99427,-2.549609 3.99428,-0.34286 3.99427,1.291253 3.99427,4.801414 3.99428,10.980922 3.99427,25.625277 3.99427,26.71488 3.99428,-8.20462 3.99427,3.38713 3.99428,24.00773 3.99427,16.91259 3.99427,29.98629 3.99428,49.79093 3.99427,32.51171 3.99427,9.70481 3.99428,10.32436 3.99427,29.90536 3.99427,31.92595 3.99428,38.65993 3.99427,8.46671 3.99427,-39.20664 3.99428,-0.82538 3.99427,19.84109 3.99427,-20.07329 3.99428,-63.03097 3.99427,-46.54443 3.99427,-21.99538 3.99428,-30.04186 3.99427,-20.7089 3.99427,-9.23403 3.99428,-19.65893 3.99427,-6.34735 3.99427,3.31185 3.99428,1.21628 3.99427,-1.68738 3.99427,3.79558 3.99428,-14.92299 3.99427,-30.00095 3.99427,-24.037254 3.99428,-12.761606 3.99427,-2.318296 3.99428,4.305396 3.99427,1.618356 3.99427,-7.76937 3.99428,-4.538434 3.99427,0.112268 3.99427,0.422392 3.99428,-0.01518 3.99427,-0.136814 3.99427,-0.46236 3.99428,1.670589 3.99427,2.828491 3.99427,-2.453776 3.99428,-5.262321 3.99427,-2.317209 3.99427,-0.340698 3.99428,-0.02999 3.99427,0.597766 3.99427,0.928331 3.99428,0.568823 3.99427,3.580979 3.99427,3.260224 3.99428,-2.527748 3.99427,-0.844337 3.99427,-1.637019 3.99428,-1.906881 3.99427,-0.03693 7.98855,-1.720015 3.99427,-0.270607 11.98282,-0.27984 15.9771,0.0064 3.99427,0.143165 3.99427,0.686511 3.99428,1.126123 3.99427,0.11399 3.99427,-0.701929 3.99428,2.185895 3.99427,3.176289 7.98855,-5.732574 3.99427,-0.409963 11.98282,-0.588182 35.94846,-0.0166 35.94846,0.0091 3.99428,0.107432 7.98854,1.317951 7.98855,-1.282375 3.99427,-0.137118 v 0" /></g></g><g
       id="g652"><path
         id="path654"
         style="fill:none;stroke:#000000;stroke-width:0.80000001;stroke-linecap:square;stroke-linejoin:miter;stroke-miterlimit:10;stroke-dasharray:none;stroke-opacity:1"
         d="M 90,63 V 443.52" /><path
         id="path656"
         style="fill:none;stroke:#000000;stroke-width:0.80000001;stroke-linecap:square;stroke-linejoin:miter;stroke-miterlimit:10;stroke-dasharray:none;stroke-opacity:1"
         d="M 648,63 V 443.52" /><path
         id="path658"
         style="fill:none;stroke:#000000;stroke-width:0.80000001;stroke-linecap:square;stroke-linejoin:miter;stroke-miterlimit:10;stroke-dasharray:none;stroke-opacity:1"
         d="M 90,63 H 648" /><path
         id="path660"
         style="fill:none;stroke:#000000;stroke-width:0.80000001;stroke-linecap:square;stroke-linejoin:miter;stroke-miterlimit:10;stroke-dasharray:none;stroke-opacity:1"
         d="M 90,443.52 H 648" /><text
         id="text664"
         style="font-variant:normal;font-weight:normal;font-size:12px;font-family:'DejaVu Sans';-inkscape-font-specification:DejaVuSans;writing-mode:lr-tb;fill:#000000;fill-opacity:1;fill-rule:nonzero;stroke:none"
         transform="matrix(1,0,0,-1,257.79687,462.97)"><tspan
           id="tspan662"
           y="0"
           x="0 9.0240002 12.36 18.612 23.316 30.66 38.279999 43.212002 50.568001 62.256001 66.071999 73.416 77.639999 81.456001 86.160004 93.767998 101.148 104.964 116.652 124.032 131.65199 134.98801 142.34399 149.952 153.76801 158.7 166.08 173.18401 180.564 188.172 195.78 203.16 206.976 214.32001 218.54401">Histogram of the median revenue of </tspan></text>
<text
         id="text668"
         style="font-variant:normal;font-weight:normal;font-size:12px;font-family:'DejaVu Sans';-inkscape-font-specification:DejaVuSans;writing-mode:lr-tb;fill:#000000;fill-opacity:1;fill-rule:nonzero;stroke:none"
         transform="matrix(1,0,0,-1,263.191,449.52)"><tspan
           id="tspan666"
           y="0"
           x="0 4.704 12.312 19.691999 23.507999 30.108 33.444 38.147999 41.484001 48.863998 55.116001 58.931999 68.748001 76.356003 83.736 88.667999 96.047997 99.863998 104.088 111.432 118.776 126.396 130.21201 133.548 138.252 145.632 157.32001 163.57201 167.388 174.744 179.67599 187.056 190.87199 197.12399 204.468 207.804">the cities where food items are sold</tspan></text>
</g></g></svg>